<svg width="458" height="282" viewBox="0 0 458 282" fill="none" xmlns="http://www.w3.org/2000/svg">
<g opacity="0.5">
<path d="M100.968 51.5677H73.0969C70.8223 51.5677 70.6131 51.3586 70.4824 48.9542C70.4824 47.8827 70.4824 46.7851 70.4824 45.6874C70.4824 44.5898 71.0838 43.5705 72.4433 43.7012C73.8029 43.8319 74.1166 43.1524 74.3519 41.9763C76.4784 31.0521 78.6397 20.1452 80.8359 9.25583C81.0368 8.43786 81.5063 7.71087 82.1694 7.1912C85.0715 5.10043 88.052 3.08807 91.0326 1.12797C91.6652 0.720203 92.3979 0.494175 93.1504 0.474609C97.9872 0.474609 102.824 0.474609 107.687 0.474609C108.485 0.490206 109.263 0.725303 109.936 1.15409C112.89 3.08805 115.818 5.07429 118.668 7.16505C119.35 7.64897 119.833 8.36409 120.028 9.17741C122.259 20.1191 124.429 31.0782 126.538 42.0547C126.773 43.3092 127.192 43.7796 128.499 43.7273C131.113 43.7273 131.113 43.7273 131.113 46.3408C131.113 47.3862 131.113 48.4054 131.113 49.4508C131.113 50.9405 130.564 51.4893 129.1 51.4632C124.42 51.4632 119.74 51.4632 115.06 51.4632L100.968 51.5677ZM124.185 43.7273C124.199 43.4923 124.199 43.2567 124.185 43.0217C122.058 32.2368 119.914 21.4345 117.753 10.6148C117.587 9.94914 117.2 9.35948 116.655 8.94221C114.197 7.19119 111.661 5.46631 109.125 3.71529C108.495 3.32706 107.774 3.11081 107.034 3.08807C102.772 3.08807 98.5363 3.08807 94.2746 3.08807C93.4838 3.13996 92.7191 3.39175 92.0523 3.81983C89.6731 5.36177 87.4246 7.06051 85.0192 8.55018C84.5633 8.83387 84.1765 9.21572 83.887 9.66785C83.5975 10.12 83.4127 10.631 83.3459 11.1636C81.6203 19.396 80.0516 27.6546 78.4044 35.8608C77.9077 38.4743 77.4371 41.0877 76.9142 43.7012L124.185 43.7273ZM128.734 46.7067H73.4891V48.8497H128.63L128.734 46.7067Z" fill="#42210B"/>
<path d="M166.043 51.5677H138.277C136.028 51.5677 135.819 51.3586 135.662 48.9542C135.662 47.8827 135.662 46.785 135.662 45.6874C135.662 44.5897 136.263 43.5705 137.623 43.7012C138.983 43.8318 139.296 43.1523 139.532 41.9763C141.71 31.1043 143.915 20.2236 146.146 9.3342C146.347 8.52287 146.806 7.7985 147.454 7.26956C150.382 5.1788 153.336 3.16644 156.343 1.20634C156.966 0.799444 157.69 0.573279 158.435 0.552979C163.298 0.552979 168.135 0.552979 172.971 0.552979C173.77 0.565846 174.548 0.801183 175.22 1.23248C178.174 3.16644 181.103 5.15266 183.979 7.24342C184.652 7.73543 185.133 8.44719 185.338 9.2558C187.569 20.1975 189.739 31.1566 191.848 42.1331C192.084 43.3875 192.502 43.858 193.809 43.8057C196.424 43.8057 196.424 43.8057 196.424 46.4192C196.424 47.4645 196.424 48.4838 196.424 49.5292C196.424 51.0188 195.849 51.5677 194.384 51.5415C189.704 51.5415 185.024 51.5415 180.344 51.5415L166.043 51.5677ZM189.286 43.7273C189.3 43.4923 189.3 43.2567 189.286 43.0217C187.142 32.2281 185.024 21.4345 182.854 10.6148C182.662 9.9687 182.268 9.40097 181.73 8.99444C179.116 7.24342 176.736 5.51854 174.174 3.76752C173.545 3.37586 172.823 3.15932 172.082 3.1403C167.847 3.1403 163.611 3.1403 159.35 3.1403C158.557 3.18393 157.791 3.4364 157.127 3.87206C154.748 5.414 152.5 7.11276 150.094 8.60243C149.635 8.88177 149.245 9.26246 148.955 9.71541C148.665 10.1684 148.482 10.6816 148.421 11.2159C146.826 19.396 145.205 27.6023 143.61 35.8085C143.087 38.422 142.617 41.0354 142.12 43.6489L189.286 43.7273ZM193.809 46.7066H138.695V48.8497H193.809V46.7066Z" fill="#42210B"/>
<path d="M231.248 51.5677H203.482C201.207 51.5677 200.998 51.3586 200.998 48.9542V45.7658C200.998 44.4329 201.599 43.6489 202.959 43.7796C204.318 43.9102 204.632 43.2307 204.868 42.0547C206.959 31.1304 209.112 20.2236 211.325 9.3342C211.526 8.51623 211.996 7.78924 212.659 7.26956C215.561 5.1788 218.542 3.16644 221.548 1.20634C222.17 0.795623 222.895 0.569108 223.64 0.552979C228.477 0.552979 233.34 0.552979 238.177 0.552979C238.975 0.565846 239.754 0.801183 240.425 1.23248C243.38 3.16644 246.308 5.15266 249.184 7.24342C249.858 7.73543 250.338 8.44719 250.543 9.2558C252.774 20.1975 254.944 31.1566 257.054 42.1331C257.289 43.3875 257.681 43.858 259.014 43.8057C261.629 43.8057 261.629 43.8057 261.629 46.4192C261.629 47.4645 261.629 48.4838 261.629 49.5292C261.629 51.0188 261.08 51.5677 259.616 51.5415C254.936 51.5415 250.256 51.5415 245.576 51.5415L231.248 51.5677ZM254.491 43.7273C254.505 43.4923 254.505 43.2567 254.491 43.0217C252.347 32.2281 250.23 21.4345 248.033 10.6148C247.86 9.96648 247.473 9.39554 246.935 8.99444C244.321 7.24342 241.942 5.51854 239.379 3.76752C238.749 3.37929 238.028 3.16303 237.288 3.1403C233.052 3.1403 228.79 3.1403 224.555 3.1403C223.763 3.18393 222.996 3.4364 222.333 3.87206C219.953 5.414 217.679 7.11276 215.3 8.60243C214.84 8.88177 214.45 9.26246 214.16 9.71541C213.87 10.1684 213.687 10.6816 213.626 11.2159C212.04 19.3873 210.428 27.5848 208.789 35.8085C208.293 38.422 207.822 41.0354 207.325 43.6489L254.491 43.7273ZM259.014 46.7066H203.874V48.8497H259.014V46.7066Z" fill="#42210B"/>
<path d="M296.455 51.5677H268.689C266.414 51.5677 266.074 51.3586 266.074 48.9542C266.074 47.8827 266.074 46.7851 266.074 45.6874C266.074 44.5898 266.676 43.5705 268.035 43.7012C269.395 43.8319 269.708 43.1524 269.944 41.9763C272.07 31.0521 274.232 20.1452 276.428 9.25583C276.629 8.43786 277.098 7.71087 277.761 7.1912C280.663 5.10043 283.644 3.08807 286.624 1.12797C287.257 0.720203 287.99 0.494175 288.742 0.474609C293.579 0.474609 298.416 0.474609 303.279 0.474609C304.077 0.490206 304.855 0.725303 305.527 1.15409C308.482 3.08805 311.41 5.07429 314.26 7.16505C314.94 7.65582 315.43 8.36683 315.646 9.17741C317.859 20.1191 320.021 31.0782 322.13 42.0547C322.365 43.3092 322.783 43.7796 324.117 43.7273C326.731 43.7273 326.731 43.7273 326.731 46.3408C326.731 47.3862 326.731 48.4054 326.731 49.4508C326.731 50.9405 326.182 51.4893 324.718 51.4632C320.038 51.4632 315.358 51.4632 310.678 51.4632L296.455 51.5677ZM319.698 43.7273C319.73 43.4932 319.73 43.2558 319.698 43.0217C317.572 32.2368 315.428 21.4345 313.266 10.6148C313.083 9.96456 312.687 9.39426 312.142 8.99447C309.685 7.24345 307.148 5.51857 304.612 3.76755C303.982 3.37932 303.261 3.16307 302.521 3.14033C298.259 3.14033 294.024 3.14033 289.788 3.14033C288.988 3.18784 288.214 3.4398 287.539 3.87209C285.186 5.41403 282.912 7.11279 280.506 8.60246C280.05 8.88321 279.665 9.26479 279.379 9.71786C279.093 10.1709 278.916 10.6834 278.859 11.2159C277.238 19.3873 275.626 27.5849 274.022 35.8085C273.526 38.422 273.055 41.0355 272.532 43.6489L319.698 43.7273ZM324.221 46.7067H269.081V48.8497H324.221V46.7067Z" fill="#42210B"/>
<path d="M35.604 51.5677H7.89005C5.61541 51.5677 5.40625 51.3586 5.40625 48.9542V45.7658C5.40625 44.4329 5.98145 43.6489 7.36715 43.7796C8.75285 43.9102 9.04044 43.2307 9.24961 42.0547C11.3761 31.1304 13.5374 20.2236 15.7336 9.3342C15.9345 8.51623 16.404 7.78924 17.067 7.26956C19.9692 5.1788 22.9497 3.16644 25.9564 1.20634C26.578 0.795623 27.3031 0.569108 28.0481 0.552979C32.8849 0.552979 37.748 0.552979 42.5848 0.552979C43.383 0.565846 44.1617 0.801183 44.8333 1.23248C47.7877 3.16644 50.716 5.15266 53.592 7.24342C54.2581 7.74284 54.7369 8.45159 54.9515 9.2558C57.1826 20.1975 59.3527 31.1566 61.4617 42.1331C61.697 43.3875 62.0892 43.858 63.4226 43.8057C66.0371 43.8057 66.0371 43.8057 66.0371 46.4192C66.0371 47.4645 66.0371 48.4838 66.0371 49.5292C66.0371 51.0188 65.4881 51.5677 64.024 51.5415C59.344 51.5415 54.6639 51.5415 49.9839 51.5415L35.604 51.5677ZM58.8472 43.7273C58.861 43.4923 58.861 43.2567 58.8472 43.0217C56.7033 32.2281 54.5855 21.4345 52.3893 10.6148C52.2354 9.94381 51.8458 9.35031 51.2912 8.94218C48.8335 7.19116 46.3236 5.46628 43.7614 3.71526C43.131 3.32703 42.4098 3.11077 41.6697 3.08804C37.4342 3.08804 33.1725 3.08804 28.937 3.08804C28.1446 3.13167 27.3779 3.38414 26.7147 3.8198C24.3354 5.36174 22.0608 7.06048 19.6816 8.55015C19.2218 8.82949 18.8321 9.2102 18.5421 9.66315C18.2521 10.1161 18.0695 10.6293 18.0083 11.1636C16.4221 19.335 14.8098 27.5326 13.1714 35.7563C12.6746 38.3697 12.204 40.9832 11.7073 43.5966L58.8472 43.7273ZM63.3703 46.7066H8.28223V48.8497H63.4226L63.3703 46.7066Z" fill="#42210B"/>
<path d="M100.967 108.855H73.2005C70.9258 108.855 70.7167 108.62 70.5859 106.241C70.5859 105.144 70.5859 104.046 70.5859 102.974C70.5859 101.903 71.1873 100.831 72.5468 100.988C73.9064 101.145 74.2201 100.439 74.4554 99.2633C76.5819 88.3391 78.7433 77.4235 80.9395 66.5167C81.134 65.7032 81.6054 64.9826 82.2729 64.4782C85.2796 62.4397 88.2601 60.4274 91.2407 58.5979C91.8787 58.2017 92.6081 57.9767 93.3585 57.9446C98.1954 57.9446 103.032 57.9446 107.895 57.9446C108.693 57.9831 109.467 58.2261 110.144 58.6502C113.098 60.5842 116.026 62.5704 118.876 64.635C119.553 65.1239 120.035 65.8369 120.236 66.6474C122.449 77.5891 124.62 88.5569 126.746 99.5508C126.981 100.779 127.4 101.276 128.707 101.223C131.321 101.223 131.321 101.223 131.321 103.837C131.321 104.856 131.321 105.902 131.321 106.921C131.321 108.41 130.772 108.959 129.308 108.959C124.628 108.959 119.948 108.959 115.242 108.959L100.967 108.855ZM124.184 101.014C124.198 100.788 124.198 100.561 124.184 100.335C122.057 89.5326 119.913 78.7303 117.752 67.928C117.567 67.2786 117.171 66.7088 116.628 66.3076C114.013 64.5305 111.634 62.8056 109.098 61.0807C108.472 60.6818 107.748 60.4646 107.006 60.4535C102.745 60.4535 98.5091 60.4535 94.2474 60.4535C93.4585 60.4952 92.6935 60.7382 92.0251 61.1591C89.6459 62.7011 87.3974 64.3998 84.992 65.9156C84.5361 66.1993 84.1493 66.5811 83.8598 67.0333C83.5703 67.4854 83.3854 67.9965 83.3187 68.5291C81.7238 76.7354 80.1028 84.9155 78.508 93.1217C78.0112 95.7352 77.5406 98.3486 77.0177 100.962L124.184 101.014ZM128.707 104.02H73.5926V106.163H128.707V104.02Z" fill="#42210B"/>
<path d="M166.146 108.855H138.38C136.132 108.855 135.766 108.619 135.766 106.241C135.766 105.143 135.766 104.046 135.766 102.974C135.766 101.903 136.367 100.831 137.727 100.988C139.086 101.145 139.4 100.439 139.635 99.2632C141.727 88.3389 143.888 77.4234 146.119 66.5166C146.315 65.7101 146.775 64.9924 147.426 64.4781C150.329 62.3612 153.309 60.3488 156.316 58.3887C156.945 57.9935 157.665 57.7684 158.407 57.7354C163.27 57.7354 168.107 57.7354 172.944 57.7354C173.743 57.7691 174.518 58.0124 175.193 58.441C178.147 60.375 181.075 62.3612 183.951 64.4258C184.621 64.9223 185.1 65.6322 185.311 66.4382C187.525 77.3798 189.695 88.3477 191.821 99.3416C192.056 100.57 192.475 101.066 193.782 101.014C196.397 101.014 196.397 101.014 196.397 103.628C196.397 104.647 196.397 105.692 196.397 106.712C196.397 108.201 195.847 108.75 194.383 108.75C189.703 108.75 185.023 108.75 180.343 108.75L166.146 108.855ZM189.39 101.014C189.403 100.788 189.403 100.561 189.39 100.335C187.246 89.5411 185.128 78.7214 182.958 67.9278C182.772 67.2784 182.377 66.7087 181.834 66.3075C179.402 64.4781 176.788 62.7532 174.173 61.2113C173.549 60.8085 172.824 60.5909 172.081 60.584C167.846 60.584 163.61 60.584 159.349 60.584C158.558 60.6186 157.792 60.8621 157.126 61.2897C154.747 62.8316 152.499 64.5303 150.093 66.0461C149.634 66.3255 149.244 66.7062 148.954 67.1591C148.664 67.6121 148.481 68.1253 148.42 68.6596C146.825 76.8659 145.204 85.046 143.609 93.2523C143.086 95.8657 142.616 98.4792 142.119 101.093L189.39 101.014ZM193.913 104.02H138.798V106.163H193.913V104.02Z" fill="#42210B"/>
<path d="M231.353 108.855H203.587C201.313 108.855 200.973 108.62 200.973 106.241V103.027C200.973 101.694 201.548 100.884 202.934 101.041C204.319 101.197 204.607 100.492 204.816 99.3157C207.047 88.4089 209.252 77.502 211.431 66.5952C211.625 65.7817 212.097 65.0611 212.764 64.5567C215.666 62.4398 218.647 60.4274 221.654 58.4673C222.28 58.0676 223.002 57.8421 223.745 57.814C228.582 57.814 233.445 57.814 238.282 57.814C239.08 57.8477 239.856 58.0911 240.53 58.5196C243.485 60.4536 246.413 62.4398 249.289 64.5044C249.958 65.001 250.438 65.7109 250.649 66.5168C252.862 77.4585 255.032 88.4263 257.159 99.4202C257.394 100.649 257.786 101.145 259.12 101.093C261.734 101.093 261.734 101.093 261.734 103.706C261.734 104.726 261.734 105.771 261.734 106.79C261.734 108.28 261.185 108.829 259.721 108.829C255.041 108.829 250.361 108.829 245.681 108.829L231.353 108.855ZM254.597 101.014C254.61 100.788 254.61 100.561 254.597 100.335C252.453 89.5414 250.335 78.7216 248.139 67.9281C247.973 67.2694 247.574 66.6934 247.014 66.3077C244.557 64.5306 242.047 62.8057 239.485 61.0808C238.859 60.6819 238.135 60.4647 237.393 60.4536C233.157 60.4536 228.896 60.4536 224.66 60.4536C223.87 60.4881 223.103 60.7316 222.438 61.1592C220.059 62.7011 217.784 64.3999 215.405 65.9157C214.945 66.195 214.555 66.5757 214.265 67.0287C213.975 67.4816 213.793 67.9949 213.732 68.5292C212.137 76.7354 210.516 84.9155 208.895 93.1218C208.398 95.7352 207.927 98.3487 207.431 100.962L254.597 101.014ZM259.12 104.02H203.979V106.163H259.12V104.02Z" fill="#42210B"/>
<path d="M296.56 108.855H268.794C266.52 108.855 266.18 108.619 266.18 106.241C266.18 105.143 266.18 104.046 266.18 102.974C266.18 101.903 266.781 100.831 268.141 100.988C269.5 101.145 269.814 100.439 270.049 99.2632C272.176 88.3389 274.337 77.4234 276.533 66.5166C276.728 65.7031 277.199 64.9825 277.867 64.4781C280.769 62.3612 283.749 60.3488 286.73 58.3887C287.368 57.9925 288.097 57.7674 288.848 57.7354C293.685 57.7354 298.521 57.7354 303.384 57.7354C304.182 57.7738 304.956 58.0168 305.633 58.441C308.587 60.375 311.516 62.3612 314.365 64.4258C315.043 64.9147 315.524 65.6277 315.725 66.4382C317.939 77.3798 320.109 88.3477 322.235 99.3416C322.47 100.57 322.889 101.066 324.196 101.014C326.811 101.014 326.811 101.014 326.811 103.628C326.811 104.647 326.811 105.692 326.811 106.712C326.811 108.201 326.262 108.75 324.797 108.75C320.117 108.75 315.437 108.75 310.757 108.75L296.56 108.855ZM319.778 101.014C319.791 100.788 319.791 100.561 319.778 100.335C317.651 89.5324 315.507 78.7301 313.346 67.9278C313.17 67.274 312.772 66.7014 312.222 66.3075C309.764 64.5303 307.228 62.8055 304.692 61.0806C304.066 60.6816 303.342 60.4645 302.6 60.4534C298.338 60.4534 294.103 60.4534 289.867 60.4534C289.07 60.4918 288.295 60.7348 287.619 61.159C285.24 62.7009 282.991 64.3997 280.586 65.9155C280.13 66.1992 279.743 66.581 279.454 67.0331C279.164 67.4853 278.979 67.9963 278.912 68.5289C277.318 76.7352 275.697 84.9153 274.102 93.1216C273.605 95.735 273.134 98.3485 272.611 100.962L319.778 101.014ZM324.327 104.02H269.186V106.163H324.327V104.02Z" fill="#42210B"/>
<path d="M35.7599 108.855H7.99357C5.71893 108.855 5.50977 108.62 5.50977 106.241C5.50977 105.144 5.50977 104.046 5.50977 102.975C5.50977 101.903 6.08496 100.831 7.47066 100.988C8.85636 101.145 9.14396 100.439 9.35312 99.2634C11.4622 88.3392 13.6235 77.4236 15.8372 66.5168C16.0819 65.7129 16.5997 65.0196 17.3013 64.5567C20.2034 62.4398 23.184 60.4274 26.1907 58.4673C26.8174 58.0676 27.5394 57.8421 28.2823 57.814C33.1192 57.814 37.9822 57.814 42.8191 57.814C43.6176 57.8477 44.3931 58.0911 45.0676 58.5196C48.022 60.4536 50.9503 62.4398 53.8001 64.5044C54.476 64.9997 54.9643 65.7089 55.1858 66.5168C57.3994 77.4585 59.5608 88.4263 61.6698 99.4202C61.9313 100.649 62.3235 101.145 63.6569 101.093C66.2714 101.093 66.2714 101.093 66.2714 103.706C66.2714 104.726 66.2714 105.771 66.2714 106.79C66.2714 108.28 65.7223 108.829 64.2582 108.829C59.5782 108.829 54.8982 108.829 50.2182 108.829L35.7599 108.855ZM59.003 101.014C59.0168 100.788 59.0168 100.561 59.003 100.335C56.8591 89.5414 54.7413 78.7216 52.5451 67.9281C52.3796 67.2694 51.98 66.6934 51.4209 66.3077C48.9632 64.5306 46.4533 62.8057 43.891 61.0808C43.2655 60.6819 42.5413 60.4647 41.7994 60.4536C37.5639 60.4536 33.3022 60.4536 29.0667 60.4536C28.269 60.492 27.4947 60.7351 26.8182 61.1592C24.4651 62.7011 22.1905 64.3999 19.7851 65.9157C19.3328 66.2008 18.9501 66.5835 18.6651 67.0357C18.38 67.488 18.1999 67.9983 18.1379 68.5292C16.5431 76.7354 14.8959 84.9155 13.3011 93.1218C12.8043 95.7352 12.3337 98.3487 11.8369 100.962L59.003 101.014ZM63.5261 104.02H8.38575V106.163H63.5261V104.02Z" fill="#42210B"/>
<path d="M426.945 51.8553H399.179C396.904 51.8553 396.695 51.6201 396.695 49.2418V46.0273C396.695 44.6944 397.297 43.9104 398.656 44.041C400.016 44.1717 400.329 43.5183 400.565 42.3162C402.656 31.3919 404.809 20.4851 407.023 9.59567C407.224 8.77771 407.693 8.05071 408.356 7.53104C411.258 5.44027 414.239 3.42791 417.246 1.46782C417.867 1.0571 418.592 0.830583 419.337 0.814453C424.174 0.814453 429.037 0.814453 433.874 0.814453C434.674 0.836499 435.453 1.08084 436.122 1.5201C439.077 3.45406 442.005 5.44027 444.881 7.5049C445.55 8.00142 446.03 8.71134 446.241 9.51727C448.454 20.459 450.624 31.4181 452.751 42.3946C452.986 43.649 453.378 44.1194 454.712 44.0933C457.326 44.0933 457.326 44.0933 457.326 46.7068C457.326 47.7522 457.326 48.7975 457.326 49.8168C457.326 51.3065 456.777 51.8553 455.313 51.8292C450.633 51.8292 445.953 51.8292 441.273 51.8292L426.945 51.8553ZM450.189 44.0149C450.202 43.7886 450.202 43.5617 450.189 43.3354C448.045 32.5157 445.927 21.7221 443.731 10.9285C443.565 10.2767 443.177 9.70331 442.633 9.30819C440.018 7.53104 437.639 5.80616 435.077 4.08128C434.448 3.68607 433.727 3.46093 432.985 3.42791C428.749 3.42791 424.488 3.42791 420.252 3.42791C419.46 3.47155 418.693 3.72401 418.03 4.15968C415.651 5.70162 413.376 7.40038 410.997 8.89005C410.537 9.16939 410.147 9.55007 409.857 10.003C409.567 10.456 409.385 10.9692 409.323 11.5035C407.737 19.6923 406.125 27.8899 404.487 36.0961C403.99 38.7096 403.519 41.3231 403.022 43.9365L450.189 44.0149ZM454.712 46.9943H399.571V49.1373H454.712V46.9943Z" fill="#42210B"/>
<path d="M361.74 51.8553H333.974C331.725 51.8553 331.516 51.6201 331.359 49.2418C331.359 48.1703 331.359 47.0727 331.359 45.975C331.359 44.8774 331.961 43.8581 333.32 43.9888C334.68 44.1195 334.994 43.4661 335.229 42.2639C337.355 31.3397 339.517 20.4328 341.713 9.54343C341.914 8.7321 342.373 8.00773 343.02 7.47879C345.948 5.38803 348.903 3.37566 351.91 1.41557C352.533 1.00867 353.257 0.782508 354.001 0.762207C358.864 0.762207 363.701 0.762207 368.538 0.762207C369.338 0.784253 370.117 1.02857 370.786 1.46783C373.741 3.40179 376.669 5.38802 379.545 7.45265C380.214 7.94918 380.694 8.65907 380.905 9.46501C383.118 20.4067 385.288 31.3658 387.415 42.3423C387.65 43.5968 388.068 44.0672 389.376 44.0411C391.99 44.0411 391.99 44.0411 391.99 46.6545C391.99 47.6999 391.99 48.7453 391.99 49.7645C391.99 51.2542 391.415 51.803 389.951 51.7769C385.271 51.7769 380.591 51.7769 375.911 51.7769L361.74 51.8553ZM384.983 44.0149C384.997 43.7886 384.997 43.5617 384.983 43.3354C382.839 32.5157 380.722 21.7221 378.552 10.9286C378.366 10.2792 377.971 9.7094 377.427 9.3082C374.813 7.53105 372.434 5.80617 369.871 4.08129C369.252 3.68598 368.54 3.46064 367.806 3.42793C363.544 3.42793 359.309 3.42793 355.047 3.42793C354.255 3.47156 353.488 3.72403 352.825 4.15969C350.445 5.70163 348.197 7.40039 345.792 8.89006C345.332 9.1694 344.942 9.55009 344.652 10.003C344.362 10.456 344.179 10.9692 344.118 11.5035C342.523 19.6836 340.902 27.8899 339.308 36.0961C338.785 38.7096 338.314 41.3231 337.817 43.9365L384.983 44.0149ZM389.506 46.9943H334.392V49.1373H389.506V46.9943Z" fill="#42210B"/>
<path d="M427.051 109.116H399.285C397.01 109.116 396.801 108.907 396.801 106.503V103.236C396.801 101.903 397.376 101.093 398.762 101.25C400.147 101.406 400.435 100.701 400.644 99.5247C402.771 88.6004 404.932 77.6849 407.128 66.778C407.329 65.9671 407.799 65.2483 408.462 64.7395C411.364 62.6488 414.344 60.6364 417.351 58.6502C417.975 58.2474 418.7 58.0299 419.443 58.0229C424.279 58.0229 429.142 58.0229 433.979 58.0229C434.778 58.0358 435.556 58.2712 436.228 58.7025C439.182 60.6364 442.111 62.6226 444.987 64.6873C445.656 65.1948 446.135 65.9129 446.346 66.7258C448.577 77.6674 450.747 88.6266 452.856 99.6031C453.092 100.858 453.484 101.328 454.817 101.276C457.432 101.276 457.432 101.276 457.432 103.889C457.432 104.908 457.432 105.954 457.432 106.999C457.432 108.489 456.883 109.012 455.419 109.012C450.739 109.012 446.058 109.012 441.378 109.012L427.051 109.116ZM450.294 101.276C450.308 101.041 450.308 100.805 450.294 100.57C448.15 89.7765 446.032 78.9568 443.836 68.1632C443.671 67.5045 443.271 66.9286 442.712 66.5428C440.254 64.7657 437.744 63.0669 435.182 61.3159C434.557 60.917 433.832 60.6998 433.09 60.6887C428.855 60.6887 424.593 60.6887 420.358 60.6887C419.563 60.7192 418.793 60.9728 418.135 61.4205C415.756 62.9363 413.481 64.6611 411.102 66.1508C410.643 66.4301 410.253 66.8108 409.963 67.2638C409.673 67.7167 409.49 68.23 409.429 68.7643C407.843 76.9705 406.231 85.1681 404.592 93.3569C404.095 95.9704 403.625 98.5838 403.128 101.197L450.294 101.276ZM454.817 104.255H399.677V106.398H454.817V104.255Z" fill="#42210B"/>
<path d="M361.844 109.116H334.077C331.829 109.116 331.463 108.907 331.463 106.503C331.463 105.405 331.463 104.333 331.463 103.236C331.463 102.138 332.064 101.093 333.424 101.25C334.783 101.406 335.097 100.701 335.332 99.5247C337.424 88.6004 339.585 77.6849 341.816 66.778C342.017 65.9739 342.477 65.2578 343.124 64.7395C346.052 62.6488 349.006 60.6364 352.013 58.6502C352.639 58.2512 353.363 58.0341 354.105 58.0229C358.968 58.0229 363.805 58.0229 368.641 58.0229C369.44 58.0358 370.218 58.2712 370.89 58.7025C373.844 60.6364 376.773 62.6226 379.649 64.6873C380.318 65.1948 380.797 65.9129 381.008 66.7258C383.239 77.6674 385.409 88.6266 387.518 99.6031C387.754 100.858 388.172 101.328 389.479 101.276C392.094 101.276 392.094 101.276 392.094 103.889C392.094 104.908 392.094 105.954 392.094 106.999C392.094 108.489 391.545 109.012 390.081 109.012C385.401 109.012 380.721 109.012 376.041 109.012L361.844 109.116ZM385.087 101.276C385.101 101.041 385.101 100.805 385.087 100.57C382.943 89.7765 380.825 78.9568 378.655 68.1632C378.47 67.5138 378.074 66.944 377.531 66.5428C375.047 64.7657 372.537 63.0669 369.975 61.3159C369.351 60.9131 368.626 60.6956 367.883 60.6887C363.648 60.6887 359.412 60.6887 355.151 60.6887C354.356 60.7192 353.585 60.9728 352.928 61.4205C350.549 62.9363 348.3 64.6611 345.895 66.1508C345.435 66.4301 345.046 66.8108 344.756 67.2638C344.466 67.7167 344.283 68.23 344.222 68.7643C342.627 76.9705 341.006 85.1768 339.411 93.3569C338.888 95.9704 338.418 98.5838 337.921 101.197L385.087 101.276ZM389.61 104.255H334.496V106.398H389.61V104.255Z" fill="#42210B"/>
<path d="M98.5097 166.403H70.7434C68.4688 166.403 68.1289 166.168 68.1289 163.79C68.1289 162.718 68.1289 161.621 68.1289 160.549C68.1289 159.477 68.7041 158.406 70.0898 158.563C71.4755 158.72 71.7631 158.014 71.9723 156.812C74.0813 145.888 76.2427 134.981 78.4563 124.091C78.6508 123.278 79.1222 122.557 79.7897 122.053C82.6918 119.936 85.6724 117.924 88.6791 115.963C89.3006 115.553 90.0258 115.326 90.7707 115.31C95.6076 115.31 100.471 115.31 105.307 115.31C106.105 115.349 106.879 115.592 107.556 116.016C110.51 117.95 113.439 119.936 116.289 122.001C116.964 122.496 117.453 123.205 117.674 124.013C119.905 134.955 122.067 145.914 124.158 156.89C124.42 158.145 124.812 158.615 126.145 158.589C128.76 158.589 128.76 158.589 128.76 161.202C128.76 162.248 128.76 163.293 128.76 164.312C128.76 165.802 128.211 166.351 126.747 166.325H98.5097V166.403ZM121.753 158.563C121.785 158.337 121.785 158.109 121.753 157.883C119.635 147.064 117.517 136.27 115.321 125.476C115.145 124.823 114.748 124.25 114.197 123.856C111.739 122.079 109.203 120.354 106.667 118.629C106.038 118.234 105.317 118.009 104.575 117.976C100.34 117.976 96.0782 117.976 91.8427 117.976C91.0429 118.023 90.2687 118.275 89.5942 118.708C87.2411 120.25 84.9665 121.948 82.5611 123.464C82.1062 123.746 81.7216 124.128 81.4362 124.581C81.1508 125.034 80.9722 125.546 80.9139 126.078C79.2929 134.284 77.6719 142.464 76.0771 150.67C75.5803 153.284 75.1097 155.897 74.6129 158.511L121.753 158.563ZM126.276 161.542H71.1356V163.685H126.276V161.542Z" fill="#42210B"/>
<path d="M163.715 166.403H135.949C133.674 166.403 133.334 166.168 133.334 163.79C133.334 162.718 133.334 161.621 133.334 160.549C133.334 159.477 133.935 158.406 135.295 158.563C136.654 158.72 136.968 158.014 137.203 156.812C139.33 145.888 141.491 134.981 143.688 124.091C143.882 123.278 144.353 122.557 145.021 122.053C147.923 119.936 150.904 117.924 153.884 115.963C154.517 115.556 155.249 115.33 156.002 115.31C160.839 115.31 165.676 115.31 170.539 115.31C171.328 115.348 172.094 115.591 172.761 116.016C175.742 117.95 178.67 119.936 181.52 122.001C182.197 122.489 182.679 123.202 182.879 124.013C185.093 134.955 187.263 145.914 189.389 156.89C189.625 158.145 190.043 158.615 191.35 158.589C193.965 158.589 193.965 158.589 193.965 161.202C193.965 162.248 193.965 163.293 193.965 164.312C193.965 165.802 193.416 166.351 191.952 166.325H163.715V166.403ZM186.932 158.563C186.946 158.337 186.946 158.11 186.932 157.883C184.805 147.064 182.661 136.261 180.5 125.476C180.306 124.859 179.922 124.319 179.402 123.934C176.918 122.157 174.408 120.432 171.846 118.708C171.228 118.309 170.515 118.083 169.78 118.054C165.519 118.054 161.283 118.054 157.022 118.054C156.231 118.106 155.466 118.358 154.799 118.786C152.42 120.328 150.172 122.027 147.766 123.542C147.308 123.823 146.919 124.204 146.629 124.657C146.339 125.11 146.156 125.622 146.093 126.156C144.498 134.362 142.877 142.542 141.282 150.749C140.785 153.362 140.315 155.975 139.792 158.589L186.932 158.563ZM191.455 161.542H136.341V163.685H191.455V161.542Z" fill="#42210B"/>
<path d="M228.896 166.403H201.13C198.882 166.403 198.516 166.168 198.516 163.789V160.523C198.516 159.164 199.117 158.38 200.477 158.536C201.836 158.693 202.15 157.988 202.385 156.785C204.477 145.861 206.638 134.954 208.869 124.065C209.053 123.253 209.515 122.532 210.176 122.026C213.079 119.909 216.059 117.897 219.066 115.937C219.689 115.53 220.413 115.304 221.157 115.284C226.02 115.284 230.857 115.284 235.694 115.284C236.493 115.317 237.268 115.561 237.943 115.989C240.897 117.923 243.825 119.91 246.701 121.974C247.371 122.471 247.85 123.181 248.061 123.986C250.275 134.928 252.445 145.887 254.571 156.864C254.806 158.118 255.225 158.589 256.532 158.563C259.147 158.563 259.147 158.563 259.147 161.176C259.147 162.221 259.147 163.267 259.147 164.286C259.147 165.776 258.597 166.325 257.133 166.298H228.896V166.403ZM252.14 158.563C252.153 158.336 252.153 158.109 252.14 157.883C249.996 147.063 247.878 136.27 245.682 125.476C245.517 124.824 245.128 124.251 244.584 123.856C241.969 122.079 239.59 120.354 237.028 118.629C236.401 118.229 235.679 118.004 234.936 117.976C230.7 117.976 226.439 117.976 222.203 117.976C221.411 118.019 220.644 118.272 219.981 118.707C217.602 120.249 215.327 121.948 212.948 123.464C212.485 123.74 212.094 124.12 211.803 124.574C211.513 125.027 211.332 125.542 211.275 126.077C209.68 134.284 208.059 142.464 206.464 150.67C205.941 153.283 205.47 155.897 204.974 158.51L252.14 158.563ZM256.663 161.542H201.522V163.685H256.663V161.542Z" fill="#42210B"/>
<path d="M294.102 166.403H266.335C264.061 166.403 263.721 166.168 263.721 163.79C263.721 162.718 263.721 161.621 263.721 160.549C263.721 159.477 264.296 158.406 265.682 158.563C267.067 158.72 267.355 158.014 267.564 156.812C269.691 145.888 271.852 134.981 274.048 124.091C274.243 123.278 274.714 122.557 275.381 122.053C278.284 119.936 281.264 117.924 284.271 115.963C284.892 115.553 285.618 115.326 286.363 115.31C291.199 115.31 296.062 115.31 300.899 115.31C301.698 115.344 302.473 115.587 303.148 116.016C306.102 117.95 309.03 119.936 311.906 122.001C312.567 122.505 313.044 123.212 313.266 124.013C315.48 134.955 317.641 145.914 319.75 156.89C320.011 158.145 320.404 158.615 321.737 158.589C324.352 158.589 324.352 158.589 324.352 161.202C324.352 162.248 324.352 163.293 324.352 164.312C324.352 165.802 323.803 166.351 322.338 166.325H294.102V166.403ZM317.345 158.563C317.358 158.337 317.358 158.11 317.345 157.883C315.201 147.064 313.083 136.27 310.887 125.476C310.721 124.818 310.322 124.242 309.763 123.856C307.305 122.079 304.795 120.354 302.233 118.629C301.604 118.234 300.883 118.009 300.141 117.976C295.906 117.976 291.644 117.976 287.408 117.976C286.616 118.019 285.849 118.272 285.186 118.708C282.807 120.25 280.532 121.948 278.127 123.464C277.672 123.746 277.287 124.128 277.002 124.581C276.716 125.034 276.538 125.546 276.48 126.078C274.885 134.284 273.264 142.464 271.643 150.67C271.146 153.284 270.675 155.897 270.179 158.511L317.345 158.563ZM321.868 161.542H266.727V163.685H321.868V161.542Z" fill="#42210B"/>
<path d="M33.3028 166.403H5.53654C3.2619 166.403 3.05273 166.168 3.05273 163.789V160.523C3.05273 159.164 3.65408 158.38 5.01363 158.536C6.37318 158.693 6.68693 157.988 6.92224 156.785C9.01386 145.861 11.1752 134.954 13.4063 124.065C13.5813 123.25 14.0457 122.526 14.7135 122.026C17.6157 119.909 20.5962 117.897 23.6029 115.937C24.2263 115.53 24.9503 115.304 25.6945 115.284C30.5314 115.284 35.3944 115.284 40.2313 115.284C41.0298 115.317 41.8053 115.561 42.4798 115.989C45.4342 117.923 48.3625 119.91 51.2385 121.974C51.9076 122.471 52.3872 123.181 52.598 123.986C54.8291 134.928 56.9992 145.887 59.1082 156.864C59.3435 158.118 59.7357 158.589 61.0691 158.563C63.6836 158.563 63.6836 158.563 63.6836 161.176C63.6836 162.221 63.6836 163.267 63.6836 164.286C63.6836 165.776 63.1346 166.325 61.6704 166.298H33.3028V166.403ZM56.546 158.563C56.5597 158.336 56.5597 158.109 56.546 157.883C54.4021 147.063 52.2843 136.27 50.0881 125.476C49.9229 124.824 49.5343 124.251 48.99 123.856C46.5062 122.079 43.9962 120.354 41.434 118.629C40.8073 118.229 40.0853 118.004 39.3424 117.976C35.1068 117.976 30.8452 117.976 26.6096 117.976C25.8172 118.019 25.0505 118.272 24.3873 118.707C22.0081 120.249 19.7334 121.948 17.3542 123.464C16.8918 123.74 16.5 124.12 16.2096 124.574C15.9192 125.027 15.7382 125.542 15.6809 126.077C14.086 134.284 12.465 142.464 10.844 150.67C10.3473 153.283 9.87665 155.897 9.37989 158.51L56.546 158.563ZM61.0691 161.542H5.92872V163.685H61.0691V161.542Z" fill="#42210B"/>
<path d="M98.6134 223.664H70.8471C68.5724 223.664 68.3633 223.455 68.3633 221.05C68.3633 219.953 68.3633 218.881 68.3633 217.784C68.3633 216.686 68.9646 215.641 70.3242 215.797C71.6837 215.954 71.9975 215.249 72.2328 214.073C74.3418 203.148 76.5032 192.241 78.7168 181.352C78.9099 180.531 79.3809 179.801 80.0502 179.287C82.9523 177.197 85.9329 175.184 88.9135 173.198C89.5535 172.81 90.283 172.594 91.0312 172.571C95.8681 172.571 100.705 172.571 105.568 172.571C106.366 172.586 107.144 172.821 107.816 173.25C110.771 175.184 113.699 177.17 116.549 179.235C117.225 179.741 117.713 180.459 117.935 181.274C120.148 192.215 122.31 203.174 124.419 214.151C124.654 215.405 125.072 215.876 126.406 215.824C129.02 215.824 129.02 215.954 129.02 218.437C129.02 219.482 129.02 220.502 129.02 221.547C129.02 223.037 128.471 223.559 127.007 223.559C122.327 223.559 117.647 223.559 112.967 223.559L98.6134 223.664ZM121.857 215.824C121.888 215.589 121.888 215.352 121.857 215.118C119.739 204.324 117.621 193.505 115.425 182.711C115.249 182.057 114.851 181.485 114.301 181.091C111.843 179.314 109.307 177.615 106.771 175.864C106.14 175.476 105.419 175.259 104.679 175.237C100.417 175.237 96.1819 175.237 91.9463 175.237C91.1442 175.272 90.3669 175.525 89.6978 175.968C87.3447 177.484 85.0701 179.209 82.6647 180.699C82.2086 180.979 81.8229 181.361 81.5373 181.814C81.2518 182.267 81.074 182.78 81.0176 183.312C79.3966 191.518 77.7843 199.716 76.1807 207.905C75.684 210.518 75.2133 213.132 74.6904 215.745L121.857 215.824ZM126.38 218.803H71.2393V220.946H126.38V218.803Z" fill="#42210B"/>
<path d="M163.716 223.664H136.054C133.779 223.664 133.439 223.455 133.439 221.05C133.439 219.953 133.439 218.881 133.439 217.784C133.439 216.686 134.041 215.641 135.4 215.797C136.76 215.954 137.074 215.249 137.309 214.073C139.435 203.148 141.597 192.241 143.793 181.352C143.986 180.531 144.457 179.801 145.126 179.287C148.029 177.197 150.983 175.184 153.99 173.198C154.628 172.807 155.359 172.59 156.107 172.571C160.936 172.571 165.772 172.571 170.618 172.571C171.416 172.584 172.195 172.819 172.867 173.25C175.847 175.184 178.775 177.17 181.625 179.235C182.295 179.743 182.774 180.461 182.985 181.274C185.216 192.215 187.386 203.174 189.495 214.151C189.73 215.405 190.149 215.876 191.456 215.824C194.07 215.824 194.07 215.954 194.07 218.437C194.07 219.482 194.07 220.502 194.07 221.547C194.07 223.037 193.495 223.559 192.057 223.559C187.351 223.559 182.671 223.559 177.991 223.559L163.716 223.664ZM186.933 215.824C186.946 215.589 186.946 215.353 186.933 215.118C184.789 204.324 182.671 193.505 180.501 182.711C180.315 182.062 179.92 181.492 179.377 181.091C176.762 179.314 174.383 177.615 171.821 175.864C171.201 175.473 170.488 175.256 169.755 175.237C165.494 175.237 161.258 175.237 156.996 175.237C156.202 175.271 155.433 175.524 154.774 175.968C152.395 177.484 150.146 179.209 147.741 180.699C147.281 180.978 146.891 181.359 146.601 181.812C146.311 182.265 146.129 182.778 146.068 183.312C144.473 191.518 142.852 199.725 141.257 207.905C140.734 210.518 140.263 213.132 139.767 215.745L186.933 215.824ZM191.456 218.803H136.446V220.946H191.56L191.456 218.803Z" fill="#42210B"/>
<path d="M229.079 223.664H201.234C198.959 223.664 198.75 223.455 198.75 221.05V217.784C198.75 216.451 199.351 215.641 200.711 215.797C202.07 215.954 202.384 215.249 202.619 214.073C204.711 203.148 206.872 192.241 209.104 181.352C209.277 180.529 209.741 179.796 210.411 179.287C213.313 177.197 216.293 175.184 219.3 173.198C219.931 172.81 220.652 172.594 221.392 172.571C226.255 172.571 231.092 172.571 235.929 172.571C236.727 172.584 237.505 172.819 238.177 173.25C241.132 175.184 244.06 177.17 246.936 179.235C247.605 179.743 248.084 180.461 248.295 181.274C250.526 192.215 252.696 203.174 254.805 214.151C255.041 215.405 255.459 215.876 256.766 215.824C259.381 215.824 259.381 215.954 259.381 218.437C259.381 219.482 259.381 220.502 259.381 221.547C259.381 223.037 258.832 223.559 257.368 223.559C252.688 223.559 248.008 223.559 243.328 223.559L229.079 223.664ZM252.322 215.824C252.335 215.589 252.335 215.353 252.322 215.118C250.178 204.324 248.06 193.505 245.864 182.711C245.699 182.059 245.31 181.486 244.766 181.091C242.151 179.314 239.772 177.615 237.21 175.864C236.581 175.472 235.859 175.256 235.118 175.237C230.883 175.237 226.621 175.237 222.385 175.237C221.591 175.267 220.82 175.521 220.163 175.968C217.784 177.484 215.509 179.209 213.13 180.699C212.67 180.978 212.28 181.359 211.99 181.812C211.7 182.265 211.518 182.778 211.457 183.312C209.853 191.518 208.241 199.716 206.62 207.905C206.123 210.518 205.652 213.132 205.156 215.745L252.322 215.824ZM256.845 218.803H201.626V220.946H256.766L256.845 218.803Z" fill="#42210B"/>
<path d="M294.207 223.664H266.441C264.166 223.664 263.826 223.455 263.826 221.05C263.826 219.953 263.826 218.881 263.826 217.784C263.826 216.686 264.401 215.641 265.787 215.797C267.173 215.954 267.46 215.249 267.67 214.073C269.796 203.148 271.957 192.241 274.154 181.352C274.347 180.531 274.818 179.801 275.487 179.287C278.389 177.197 281.37 175.184 284.376 173.198C285.005 172.806 285.727 172.59 286.468 172.571C291.305 172.571 296.168 172.571 301.005 172.571C301.802 172.586 302.58 172.821 303.253 173.25C306.208 175.184 309.136 177.17 311.986 179.235C312.662 179.741 313.15 180.459 313.371 181.274C315.585 192.215 317.746 203.174 319.856 214.151C320.117 215.405 320.509 215.876 321.843 215.824C324.457 215.824 324.457 215.954 324.457 218.437C324.457 219.482 324.457 220.502 324.457 221.547C324.457 223.037 323.908 223.559 322.444 223.559C317.764 223.559 313.084 223.559 308.404 223.559L294.207 223.664ZM317.45 215.824C317.482 215.589 317.482 215.352 317.45 215.118C315.332 204.324 313.215 193.505 311.018 182.711C310.842 182.057 310.445 181.485 309.894 181.091C307.437 179.314 304.9 177.615 302.364 175.864C301.734 175.476 301.013 175.259 300.273 175.237C296.037 175.237 291.775 175.237 287.54 175.237C286.738 175.272 285.961 175.525 285.291 175.968C282.938 177.484 280.664 179.209 278.258 180.699C277.806 180.984 277.423 181.366 277.138 181.819C276.853 182.271 276.673 182.781 276.611 183.312C275.016 191.518 273.369 199.725 271.774 207.905C271.278 210.518 270.807 213.132 270.31 215.745L317.45 215.824ZM321.973 218.803H266.833V220.946H321.973V218.803Z" fill="#42210B"/>
<path d="M33.4083 223.664H5.642C3.36737 223.664 3.1582 223.455 3.1582 221.05V217.784C3.1582 216.451 3.75954 215.641 5.1191 215.797C6.47865 215.954 6.7924 215.249 7.0277 214.073C9.11933 203.148 11.272 192.241 13.4856 181.352C13.6786 180.531 14.1497 179.801 14.819 179.287C17.7211 177.197 20.7017 175.184 23.7084 173.198C24.3372 172.806 25.0593 172.59 25.8 172.571C30.6369 172.571 35.4999 172.571 40.3368 172.571C41.135 172.584 41.9137 172.819 42.5853 173.25C45.5397 175.184 48.468 177.17 51.3439 179.235C52.0134 179.743 52.4923 180.461 52.7035 181.274C54.9346 192.215 57.1046 203.174 59.2137 214.151C59.449 215.405 59.8412 215.876 61.1746 215.824C63.7891 215.824 63.7891 215.954 63.7891 218.437C63.7891 219.482 63.7891 220.502 63.7891 221.547C63.7891 223.037 63.2401 223.559 61.7759 223.559C57.0959 223.559 52.4159 223.559 47.7359 223.559L33.4083 223.664ZM56.6514 215.824C56.6652 215.589 56.6652 215.353 56.6514 215.118C54.5075 204.324 52.3898 193.505 50.1936 182.711C50.0284 182.059 49.6398 181.486 49.0955 181.091C46.6117 179.314 44.1017 177.615 41.5395 175.864C40.9091 175.476 40.1879 175.259 39.4478 175.237C35.2123 175.237 30.9506 175.237 26.7151 175.237C25.9203 175.267 25.1501 175.521 24.4927 175.968C22.1135 177.484 19.8389 179.209 17.4597 180.699C16.9999 180.978 16.6102 181.359 16.3202 181.812C16.0302 182.265 15.8476 182.778 15.7864 183.312C14.1828 191.518 12.5705 199.716 10.9495 207.905C10.4527 210.518 9.98212 213.132 9.48536 215.745L56.6514 215.824ZM61.1746 218.803H6.03418V220.946H61.1746V218.803Z" fill="#42210B"/>
<path d="M424.594 166.664H396.828C394.579 166.664 394.344 166.429 394.344 164.051V160.784C394.344 159.451 394.945 158.641 396.305 158.798C397.664 158.954 397.978 158.249 398.213 157.073C400.305 146.149 402.466 135.233 404.697 124.326C404.881 123.515 405.344 122.793 406.005 122.288C408.907 120.171 411.887 118.158 414.894 116.198C415.523 115.803 416.243 115.578 416.986 115.545C421.849 115.545 426.685 115.545 431.522 115.545C432.321 115.579 433.096 115.822 433.771 116.251C436.725 118.185 439.653 120.171 442.529 122.235C443.199 122.732 443.678 123.442 443.889 124.248C446.12 135.189 448.29 146.157 450.399 157.151C450.634 158.379 451.053 158.876 452.36 158.824C454.975 158.824 454.975 158.824 454.975 161.437C454.975 162.457 454.975 163.502 454.975 164.521C454.975 166.011 454.426 166.56 452.961 166.56C448.281 166.56 443.601 166.56 438.921 166.56L424.594 166.664ZM447.837 158.824C447.851 158.597 447.851 158.371 447.837 158.144C445.693 147.351 443.575 136.531 441.379 125.737C441.214 125.086 440.825 124.512 440.281 124.117C437.797 122.34 435.287 120.615 432.725 118.89C432.101 118.487 431.376 118.27 430.633 118.263C426.398 118.263 422.136 118.263 417.901 118.263C417.108 118.284 416.338 118.529 415.678 118.969C413.299 120.51 411.024 122.209 408.645 123.725C408.185 124.004 407.796 124.385 407.506 124.838C407.216 125.291 407.033 125.804 406.972 126.338C405.377 134.545 403.756 142.725 402.161 150.931C401.638 153.545 401.168 156.158 400.671 158.772L447.837 158.824ZM452.36 161.803H397.22V163.972H452.36V161.803Z" fill="#42210B"/>
<path d="M359.412 166.664H331.646C329.371 166.664 329.031 166.429 329.031 164.051C329.031 162.953 329.031 161.855 329.031 160.784C329.031 159.712 329.633 158.641 330.992 158.798C332.352 158.954 332.665 158.249 332.901 157.073C335.027 146.149 337.189 135.233 339.385 124.326C339.579 123.513 340.051 122.792 340.718 122.288C343.62 120.171 346.601 118.158 349.581 116.198C350.219 115.802 350.949 115.577 351.699 115.545C356.536 115.545 361.373 115.545 366.236 115.545C367.026 115.579 367.793 115.823 368.458 116.251C371.439 118.185 374.367 120.171 377.217 122.235C377.894 122.724 378.376 123.437 378.577 124.248C380.808 135.189 382.978 146.157 385.087 157.151C385.322 158.379 385.74 158.876 387.048 158.824C389.662 158.824 389.662 158.824 389.662 161.437C389.662 162.457 389.662 163.502 389.662 164.521C389.662 166.011 389.113 166.56 387.649 166.56C382.969 166.56 378.263 166.56 373.583 166.56L359.412 166.664ZM382.629 158.824C382.643 158.597 382.643 158.371 382.629 158.144C380.503 147.359 378.359 136.557 376.197 125.737C376.012 125.088 375.617 124.518 375.073 124.117C372.459 122.34 370.079 120.615 367.517 118.89C366.903 118.488 366.186 118.27 365.452 118.263C361.19 118.263 356.954 118.263 352.693 118.263C351.902 118.292 351.133 118.536 350.47 118.969C348.091 120.51 345.843 122.209 343.437 123.725C342.981 124.009 342.595 124.391 342.305 124.843C342.016 125.295 341.831 125.806 341.764 126.338C340.169 134.545 338.548 142.725 336.953 150.931C336.456 153.545 335.986 156.158 335.463 158.772L382.629 158.824ZM387.152 161.803H332.038V163.972H387.152V161.803Z" fill="#42210B"/>
<path d="M424.697 223.925C415.442 223.925 406.186 223.925 396.931 223.925C394.656 223.925 394.447 223.716 394.447 221.312V218.019C394.447 216.686 395.049 215.902 396.408 216.033C397.768 216.163 398.081 215.51 398.317 214.308C400.408 203.384 402.57 192.477 404.801 181.587C404.981 180.767 405.444 180.036 406.108 179.523C409.01 177.432 411.991 175.42 414.997 173.46C415.621 173.053 416.345 172.826 417.089 172.806C421.952 172.806 426.789 172.806 431.626 172.806C432.424 172.819 433.203 173.054 433.874 173.486C436.829 175.42 439.757 177.406 442.633 179.497C443.307 179.989 443.788 180.7 443.993 181.509C446.224 192.451 448.394 203.41 450.503 214.386C450.738 215.641 451.156 216.111 452.464 216.059C455.078 216.059 455.078 216.19 455.078 218.672C455.078 219.718 455.078 220.737 455.078 221.782C455.078 223.272 454.529 223.821 453.065 223.795C448.385 223.795 443.705 223.795 439.025 223.795L424.697 223.925ZM447.941 216.085C447.955 215.859 447.955 215.632 447.941 215.406C445.797 204.586 443.679 193.792 441.483 182.973C441.31 182.324 440.923 181.753 440.385 181.352C437.901 179.601 435.391 177.876 432.829 176.125C432.2 175.734 431.478 175.517 430.737 175.498C426.501 175.498 422.24 175.498 418.004 175.498C417.212 175.542 416.445 175.794 415.782 176.23C413.403 177.772 411.128 179.47 408.749 180.96C408.289 181.24 407.899 181.62 407.609 182.073C407.319 182.526 407.137 183.039 407.075 183.574C405.472 191.745 403.86 199.943 402.239 208.166C401.742 210.78 401.271 213.393 400.774 216.007L447.941 216.085ZM452.464 219.064H397.323V221.207H452.464V219.064Z" fill="#42210B"/>
<path d="M359.518 223.925C350.262 223.925 341.007 223.925 331.751 223.925C329.477 223.925 329.137 223.716 329.137 221.312C329.137 220.24 329.137 219.142 329.137 218.045C329.137 216.947 329.738 215.928 331.098 216.059C332.457 216.189 332.771 215.536 333.006 214.334C335.115 203.409 337.277 192.503 339.49 181.613C339.691 180.795 340.161 180.068 340.824 179.549C343.726 177.458 346.706 175.445 349.687 173.485C350.318 173.074 351.052 172.847 351.805 172.832C356.65 172.832 361.487 172.832 366.315 172.832C367.113 172.845 367.892 173.08 368.564 173.512C371.544 175.445 374.473 177.432 377.322 179.522C377.996 180.014 378.477 180.726 378.682 181.535C380.913 192.476 383.083 203.436 385.192 214.412C385.428 215.667 385.846 216.137 387.153 216.085C389.768 216.085 389.768 216.215 389.768 218.698C389.768 219.744 389.768 220.763 389.768 221.808C389.768 223.298 389.192 223.847 387.754 223.821C383.074 223.821 378.368 223.821 373.688 223.821L359.518 223.925ZM382.735 216.085C382.749 215.858 382.749 215.632 382.735 215.405C380.608 204.586 378.464 193.775 376.303 182.972C376.11 182.326 375.717 181.758 375.179 181.352C372.695 179.601 370.185 177.876 367.623 176.125C367.003 175.734 366.289 175.518 365.557 175.498C361.295 175.498 357.06 175.498 352.798 175.498C352.007 175.545 351.241 175.797 350.576 176.229C348.197 177.771 345.948 179.47 343.543 180.96C343.083 181.239 342.693 181.62 342.403 182.073C342.113 182.526 341.931 183.039 341.869 183.573C340.275 191.753 338.654 199.96 337.059 208.166C336.536 210.779 336.065 213.393 335.568 216.006L382.735 216.085ZM387.258 219.064H332.143V221.207H387.258V219.064Z" fill="#42210B"/>
<path d="M95.8692 281.212H68.1029C65.8283 281.212 65.6191 280.977 65.6191 278.599V275.515C65.6191 274.182 66.2205 273.372 67.58 273.529C68.9396 273.685 69.2533 272.98 69.4886 271.804C71.5803 260.879 73.7329 249.964 75.9465 239.057C76.147 238.246 76.6172 237.527 77.2799 237.019C80.1821 234.902 83.1626 232.915 86.1693 230.929C86.7961 230.53 87.518 230.304 88.2609 230.276C93.0978 230.276 97.9608 230.276 102.798 230.276C103.596 230.31 104.372 230.553 105.046 230.982C108.001 232.915 110.929 234.902 113.805 236.966C114.474 237.463 114.954 238.173 115.164 238.979C117.378 249.92 119.548 260.888 121.675 271.882C121.91 273.137 122.302 273.607 123.636 273.555C126.25 273.555 126.25 273.555 126.25 276.168C126.25 277.187 126.25 278.233 126.25 279.252C126.25 280.742 125.701 281.291 124.237 281.291C119.557 281.291 114.877 281.291 110.197 281.291L95.8692 281.212ZM119.112 273.372C119.126 273.145 119.126 272.919 119.112 272.692C116.968 261.899 114.851 251.079 112.654 240.285C112.489 239.634 112.101 239.06 111.556 238.665C109.073 236.888 106.563 235.163 104 233.438C103.375 233.039 102.651 232.822 101.909 232.811C97.6732 232.811 93.4116 232.811 89.176 232.811C88.3859 232.846 87.619 233.089 86.9537 233.517C84.5745 235.058 82.2998 236.783 79.9206 238.273C79.4609 238.552 79.0711 238.933 78.7811 239.386C78.4911 239.839 78.3085 240.352 78.2473 240.887C76.6524 249.093 75.0314 257.273 73.4104 265.479C72.9137 268.093 72.4431 270.706 71.9463 273.32L119.112 273.372ZM123.636 276.377H68.4951V278.52H123.636V276.377Z" fill="#42210B"/>
<path d="M161.1 281.212H133.308C131.033 281.212 130.824 280.977 130.824 278.599C130.824 277.501 130.824 276.403 130.824 275.332C130.824 274.26 131.426 273.189 132.785 273.346C134.145 273.502 134.458 272.797 134.694 271.621C136.82 260.696 138.982 249.781 141.178 238.874C141.378 238.063 141.848 237.344 142.511 236.835C145.413 234.719 148.394 232.732 151.401 230.746C152.027 230.346 152.749 230.121 153.492 230.093C158.329 230.093 163.166 230.093 168.029 230.093C168.827 230.131 169.601 230.374 170.277 230.798C173.232 232.732 176.16 234.719 179.01 236.783C179.686 237.278 180.174 237.988 180.396 238.796C182.609 249.737 184.771 260.705 186.88 271.699C187.141 272.953 187.533 273.424 188.867 273.372C191.481 273.372 191.481 273.372 191.481 275.985C191.481 277.004 191.481 278.05 191.481 279.069C191.481 280.559 190.932 281.107 189.468 281.107C184.788 281.107 180.108 281.107 175.428 281.107L161.1 281.212ZM184.344 273.372C184.375 273.146 184.375 272.918 184.344 272.692C182.226 261.899 180.108 251.079 177.912 240.285C177.736 239.631 177.339 239.059 176.788 238.665C174.33 236.888 171.794 235.163 169.258 233.438C168.632 233.039 167.908 232.822 167.166 232.811C162.904 232.811 158.669 232.811 154.433 232.811C153.636 232.849 152.861 233.092 152.185 233.516C149.832 235.058 147.557 236.783 145.152 238.273C144.696 238.554 144.31 238.935 144.024 239.388C143.739 239.841 143.561 240.354 143.505 240.886C141.884 249.093 140.263 257.273 138.668 265.479C138.171 268.092 137.7 270.706 137.204 273.319L184.344 273.372ZM188.867 276.377H133.7V278.52H188.841L188.867 276.377Z" fill="#42210B"/>
<path d="M226.281 281.212H198.515C196.24 281.212 195.9 280.977 195.9 278.599C195.9 277.501 195.9 276.404 195.9 275.332C195.9 274.261 196.502 273.189 197.861 273.346C199.221 273.503 199.535 272.797 199.77 271.621C201.879 260.749 204.075 249.851 206.359 238.927C206.559 238.116 207.029 237.397 207.692 236.888C210.594 234.771 213.575 232.785 216.555 230.799C217.192 230.399 217.922 230.174 218.673 230.146C223.519 230.146 228.355 230.146 233.184 230.146C233.982 230.179 234.758 230.423 235.432 230.851C238.413 232.785 241.341 234.771 244.191 236.836C244.86 237.332 245.339 238.042 245.55 238.848C247.781 249.79 249.951 260.758 252.06 271.752C252.296 273.006 252.714 273.477 254.021 273.424C256.636 273.424 256.636 273.424 256.636 276.038C256.636 277.057 256.636 278.102 256.636 279.122C256.636 280.611 256.061 281.16 254.623 281.16C249.943 281.16 245.237 281.16 240.557 281.16L226.281 281.212ZM249.498 273.372C249.512 273.146 249.512 272.919 249.498 272.693C247.372 261.908 245.228 251.105 243.066 240.286C242.881 239.636 242.486 239.067 241.942 238.665C239.328 236.888 236.948 235.163 234.386 233.438C233.772 233.036 233.055 232.819 232.321 232.811C228.059 232.811 223.824 232.811 219.562 232.811C218.772 232.849 218.006 233.093 217.34 233.517C214.96 235.059 212.712 236.784 210.306 238.273C209.847 238.553 209.457 238.933 209.167 239.386C208.877 239.839 208.694 240.353 208.633 240.887C207.038 249.093 205.417 257.273 203.822 265.479C203.3 268.093 202.829 270.706 202.332 273.32L249.498 273.372ZM254.021 276.378H198.907V278.521H254.021V276.378Z" fill="#42210B"/>
<path d="M291.461 281.212H263.695C261.42 281.212 261.211 280.977 261.211 278.599V275.515C261.211 274.182 261.812 273.372 263.172 273.529C264.531 273.685 264.845 272.98 265.08 271.804C267.172 260.879 269.333 249.964 271.564 239.057C271.746 238.245 272.209 237.523 272.872 237.019C275.774 234.902 278.754 232.915 281.761 230.929C282.39 230.534 283.111 230.309 283.853 230.276C288.716 230.276 293.553 230.276 298.39 230.276C299.188 230.31 299.964 230.553 300.638 230.982C303.592 232.915 306.521 234.902 309.397 236.966C310.066 237.463 310.545 238.173 310.756 238.979C312.987 249.92 315.157 260.888 317.266 271.882C317.502 273.137 317.92 273.607 319.227 273.555C321.842 273.555 321.842 273.555 321.842 276.168C321.842 277.187 321.842 278.233 321.842 279.252C321.842 280.742 321.293 281.291 319.829 281.291C315.149 281.291 310.469 281.291 305.789 281.291L291.461 281.212ZM314.704 273.372C314.718 273.145 314.718 272.919 314.704 272.692C312.56 261.899 310.442 251.079 308.246 240.285C308.081 239.634 307.693 239.06 307.148 238.665C304.534 236.888 302.154 235.163 299.592 233.438C298.968 233.035 298.243 232.818 297.501 232.811C293.265 232.811 289.003 232.811 284.768 232.811C283.978 232.846 283.211 233.089 282.545 233.517C280.166 235.058 277.892 236.783 275.512 238.273C275.053 238.552 274.663 238.933 274.373 239.386C274.083 239.839 273.9 240.352 273.839 240.887C272.244 249.093 270.623 257.273 269.002 265.479C268.505 268.093 268.035 270.706 267.538 273.32L314.704 273.372ZM319.227 276.377H264.087V278.52H319.227V276.377Z" fill="#42210B"/>
<path d="M30.6622 281.212H2.89591C0.647417 281.212 0.438255 280.977 0.412109 278.599C0.412109 277.501 0.412109 276.404 0.412109 275.332C0.412109 274.261 1.01345 273.189 2.373 273.346C3.73256 273.503 4.0463 272.797 4.28161 271.621C6.40809 260.749 8.56944 249.851 10.7656 238.927C10.9666 238.123 11.4259 237.407 12.0729 236.888C15.0012 234.771 17.9556 232.785 20.9623 230.799C21.5911 230.404 22.3119 230.179 23.0539 230.146C27.9169 230.146 32.7538 230.146 37.5907 230.146C38.3892 230.179 39.1647 230.423 39.8392 230.851C42.7936 232.785 45.7219 234.771 48.5978 236.836C49.267 237.332 49.7466 238.042 49.9574 238.848C52.1885 249.79 54.3585 260.758 56.4676 271.752C56.7029 273.006 57.1212 273.477 58.4285 273.424C61.043 273.424 61.043 273.424 61.043 276.038C61.043 277.057 61.043 278.102 61.043 279.122C61.043 280.611 60.4678 281.16 59.0037 281.16C54.3237 281.16 49.6437 281.16 44.9637 281.16L30.6622 281.212ZM53.9053 273.372C53.9191 273.146 53.9191 272.919 53.9053 272.693C51.7614 261.899 49.6437 251.079 47.4736 240.286C47.2881 239.636 46.8928 239.067 46.3494 238.665C43.8656 236.888 41.3556 235.163 38.7934 233.438C38.1777 233.039 37.4618 232.822 36.7279 232.811C32.4662 232.811 28.2307 232.811 23.969 232.811C23.1788 232.846 22.412 233.089 21.7467 233.517C19.3674 235.059 17.1189 236.784 14.7136 238.273C14.2538 238.553 13.8641 238.933 13.5741 239.386C13.2841 239.839 13.1015 240.353 13.0403 240.887C11.4454 249.093 9.82441 257.273 8.22955 265.479C7.70664 268.093 7.23603 270.706 6.73927 273.32L53.9053 273.372ZM58.4285 276.378H3.31423V278.521H58.4285V276.378Z" fill="#42210B"/>
<path d="M421.978 281.473H394.212C391.938 281.473 391.728 281.264 391.598 278.86C391.598 277.762 391.598 276.691 391.598 275.593C391.598 274.496 392.199 273.45 393.559 273.607C394.918 273.764 395.232 273.058 395.467 271.882C397.594 260.958 399.755 250.042 401.951 239.135C402.152 238.325 402.622 237.606 403.285 237.097C406.187 235.006 409.167 232.994 412.148 231.008C412.781 230.605 413.515 230.388 414.266 230.38C419.102 230.38 423.939 230.38 428.802 230.38C429.592 230.397 430.361 230.632 431.025 231.06C434.005 232.994 436.934 234.98 439.783 237.045C440.453 237.552 440.932 238.27 441.143 239.083C443.374 250.025 445.544 260.984 447.653 271.96C447.888 273.215 448.307 273.685 449.614 273.633C452.229 273.633 452.229 273.633 452.229 276.247C452.229 277.266 452.229 278.311 452.229 279.357C452.229 280.846 451.653 281.369 450.215 281.369C445.535 281.369 440.829 281.369 436.149 281.369L421.978 281.473ZM445.195 273.633C445.209 273.398 445.209 273.162 445.195 272.927C443.069 262.143 440.925 251.34 438.764 240.521C438.578 239.871 438.183 239.301 437.639 238.9C435.025 237.123 432.646 235.424 430.084 233.673C429.469 233.271 428.752 233.054 428.018 233.046C423.756 233.046 419.521 233.046 415.259 233.046C414.465 233.081 413.696 233.334 413.037 233.778C410.658 235.294 408.409 237.019 406.004 238.508C405.544 238.788 405.154 239.168 404.864 239.621C404.574 240.074 404.392 240.587 404.33 241.122C402.736 249.328 401.115 257.534 399.52 265.714C398.997 268.328 398.552 270.941 398.029 273.555L445.195 273.633ZM449.719 276.612H394.604V278.756H449.719V276.612Z" fill="#42210B"/>
<path d="M356.771 281.473H329.005C326.731 281.473 326.391 281.264 326.391 278.86C326.391 277.762 326.391 276.691 326.391 275.593C326.391 274.496 326.992 273.45 328.378 273.607C329.763 273.764 330.025 273.058 330.26 271.882C332.387 260.958 334.548 250.042 336.744 239.135C336.945 238.325 337.415 237.606 338.078 237.097C340.98 235.006 343.96 232.994 346.967 231.008C347.591 230.605 348.316 230.387 349.059 230.38C353.895 230.38 358.758 230.38 363.595 230.38C364.393 230.396 365.171 230.631 365.844 231.06C368.798 232.994 371.727 234.98 374.576 237.045C375.253 237.551 375.74 238.268 375.962 239.083C378.193 250.025 380.354 260.984 382.446 271.96C382.708 273.215 383.1 273.685 384.433 273.633C387.048 273.633 387.048 273.633 387.048 276.247C387.048 277.266 387.048 278.311 387.048 279.357C387.048 280.846 386.499 281.369 385.034 281.369C380.354 281.369 375.674 281.369 370.994 281.369L356.771 281.473ZM380.015 273.633C380.046 273.399 380.046 273.162 380.015 272.927C377.897 262.134 375.779 251.314 373.583 240.521C373.407 239.867 373.01 239.294 372.459 238.9C370.001 237.123 367.465 235.424 364.929 233.673C364.303 233.274 363.579 233.057 362.837 233.046C358.602 233.046 354.34 233.046 350.104 233.046C349.302 233.081 348.525 233.334 347.856 233.778C345.503 235.294 343.228 237.019 340.823 238.508C340.367 238.789 339.981 239.171 339.695 239.624C339.41 240.077 339.232 240.589 339.176 241.122C337.555 249.328 335.942 257.525 334.339 265.714C333.842 268.328 333.371 270.941 332.875 273.555L380.015 273.633ZM384.538 276.612H329.397V278.756H384.538V276.612Z" fill="#42210B"/>
</g>
</svg>
