<svg width="460" height="482" viewBox="0 0 460 482" fill="none" xmlns="http://www.w3.org/2000/svg">
<path d="M421.096 482H39.2179C32.5509 479.073 25.204 477.113 19.3214 473.01C5.67353 463.471 0 449.515 0 432.841C0 335.934 0 239.062 0 142.225C0 122.127 0 101.925 0 81.9583C0.156872 58.9599 13.0726 41.5281 35.2961 35.6739C42.3031 33.8445 49.9113 34.132 57.232 33.9491C68.6575 33.6877 80.1091 33.9491 92.136 33.9491V0.000244141H115.667V33.5048H345.118V0.000244141H368.465V33.9752H373.877C386.61 33.9752 399.343 33.9752 412.05 33.9752C419.45 33.7467 426.798 35.2874 433.483 38.4694C440.168 41.6513 445.996 46.3824 450.483 52.2694C457.076 61.1458 460.434 72.009 460 83.0559C459.895 199.703 459.895 316.351 460 432.998C460 434.566 460 436.134 460 437.702C459.761 444.224 458.127 450.618 455.209 456.456C452.292 462.294 448.157 467.439 443.084 471.546C436.626 477.139 428.783 479.387 421.096 482ZM436.914 172.488H23.2954V433.102C23.2954 449.829 32.4201 458.976 49.2316 458.976C169.831 458.976 290.448 458.976 411.082 458.976C414.052 459.058 417.021 458.768 419.919 458.113C430.874 455.186 436.914 446.196 436.914 433.024V172.488ZM115.327 57.4963C115.327 59.5871 115.118 75.9473 115.118 75.9473H91.8484V57.1304H49.1531C32.8385 57.1304 23.3216 66.5911 23.2954 82.7946C23.2954 103.214 23.2954 123.626 23.2954 144.028V148.314H436.809C436.809 125.159 437.358 102.396 436.626 79.6846C436.156 65.2844 426.168 57.1827 411.71 57.1304H368.021V76.0257H344.673V57.2872L115.327 57.4963Z" fill="#42210B"/>
</svg>
