<svg width="446" height="377" viewBox="0 0 446 377" fill="none" xmlns="http://www.w3.org/2000/svg">
<path d="M125.064 115.36C123.186 115.36 121.736 116.043 120.712 117.408C119.688 118.731 119.176 120.779 119.176 123.552C119.176 126.326 119.688 128.566 120.712 130.272C121.778 131.936 123.314 132.768 125.32 132.768C126.344 132.768 127.346 132.448 128.328 131.808C129.309 131.168 130.056 130.528 130.568 129.888L131.272 128.864L134.472 132.192C134.344 132.406 134.173 132.704 133.96 133.088C133.789 133.472 133.32 134.155 132.552 135.136C131.826 136.118 131.037 136.992 130.184 137.76C129.373 138.486 128.306 139.168 126.984 139.808C125.661 140.406 124.274 140.704 122.824 140.704C119.624 140.704 117.021 139.403 115.016 136.8C113.01 134.198 112.008 130.806 112.008 126.624C112.008 121.419 113.522 116.854 116.552 112.928C119.581 109.003 123.122 107.04 127.176 107.04C128.413 107.04 129.65 107.232 130.888 107.616C132.125 107.958 133.384 108.512 134.664 109.28L130.184 117.152C128.648 115.958 126.941 115.36 125.064 115.36ZM145.081 140C142.563 140 140.494 139.211 138.873 137.632C137.294 136.011 136.505 133.856 136.505 131.168C136.505 128.438 137.742 126.091 140.217 124.128C142.691 122.123 145.699 121.12 149.241 121.12H153.593V120.032C153.593 117.942 153.166 116.512 152.313 115.744C151.459 114.976 149.859 114.592 147.513 114.592C146.531 114.592 145.358 114.806 143.993 115.232C142.67 115.616 141.177 116.235 139.513 117.088L137.657 112.032C139.491 110.752 141.71 109.6 144.313 108.576C146.958 107.552 149.134 107.04 150.841 107.04C157.539 107.04 160.889 110.283 160.889 116.768V129.312C160.889 131.702 161.635 134.368 163.129 137.312L156.345 140.192C155.278 138.144 154.489 136.31 153.977 134.688C151.63 138.23 148.665 140 145.081 140ZM147.769 133.472C149.475 133.472 151.417 132.598 153.593 130.848V126.56C151.331 126.048 149.497 125.792 148.089 125.792C145.401 125.792 144.057 126.987 144.057 129.376C144.057 130.614 144.398 131.616 145.081 132.384C145.763 133.11 146.659 133.472 147.769 133.472ZM185.769 107.68C188.499 107.68 190.782 108.875 192.617 111.264C194.494 113.654 195.433 116.875 195.433 120.928C195.433 126.603 193.961 131.211 191.017 134.752C188.115 138.251 184.489 140 180.137 140C179.241 140 178.238 139.936 177.129 139.808L177.449 152.032L168.681 153.632L169.513 124.448H169.577C169.406 118.731 168.937 113.611 168.169 109.088L175.913 107.424C176.169 109.686 176.382 111.926 176.553 114.144C176.638 113.931 177.065 113.355 177.833 112.416C178.643 111.435 179.817 110.411 181.353 109.344C182.889 108.235 184.361 107.68 185.769 107.68ZM183.273 116C181.011 116 178.814 116.619 176.681 117.856V123.36L176.937 132.512C179.241 132.896 180.99 133.088 182.185 133.088C186.281 133.088 188.329 130.251 188.329 124.576C188.329 118.859 186.643 116 183.273 116ZM210.407 134.048C212.626 134.048 213.735 133.067 213.735 131.104C213.735 130.422 213.245 129.782 212.263 129.184C211.325 128.587 210.151 127.99 208.743 127.392C207.378 126.795 205.991 126.134 204.583 125.408C203.218 124.64 202.045 123.595 201.063 122.272C200.125 120.95 199.655 119.435 199.655 117.728C199.655 114.87 200.914 112.374 203.431 110.24C205.949 108.107 208.85 107.04 212.135 107.04C213.671 107.04 215.165 107.232 216.615 107.616C218.109 107.958 219.538 108.512 220.903 109.28L216.615 117.088C216.317 116.832 215.933 116.512 215.463 116.128C214.994 115.744 214.098 115.254 212.775 114.656C211.495 114.016 210.343 113.696 209.319 113.696C208.338 113.696 207.57 113.931 207.015 114.4C206.503 114.827 206.247 115.446 206.247 116.256C206.247 117.024 206.973 117.814 208.423 118.624C209.917 119.392 211.538 120.118 213.287 120.8C215.037 121.44 216.637 122.528 218.087 124.064C219.581 125.558 220.327 127.35 220.327 129.44C220.327 132.427 219.09 135.051 216.615 137.312C214.183 139.574 211.367 140.704 208.167 140.704C206.119 140.704 204.199 140.256 202.407 139.36C200.658 138.464 199.399 137.568 198.631 136.672L197.479 135.328L202.535 129.44C202.791 129.782 203.154 130.208 203.623 130.72C204.093 131.232 205.01 131.915 206.375 132.768C207.783 133.622 209.127 134.048 210.407 134.048ZM233.611 140C231.307 140 229.429 139.254 227.979 137.76C226.571 136.224 225.867 134.219 225.867 131.744L226.251 124.384L225.547 109.024L234.123 107.424L233.291 126.88C233.291 128.715 233.611 130.059 234.251 130.912C234.933 131.766 236 132.192 237.451 132.192C238.901 132.192 240.907 131.467 243.467 130.016V126.176L242.763 109.344L251.403 107.744L250.635 123.744L250.699 128.992C250.699 131.723 251.403 134.475 252.811 137.248L246.155 140.192C244.747 137.419 243.893 135.2 243.595 133.536C239.755 137.846 236.427 140 233.611 140ZM267.324 90.4642L266.492 123.36L267.196 138.4L258.556 140L259.324 124.448L258.556 92.0642L267.324 90.4642ZM286.263 133.472C287.501 133.472 288.802 133.152 290.167 132.512C291.533 131.872 292.599 131.232 293.367 130.592L294.519 129.632L297.463 133.216C297.037 133.942 296.375 134.774 295.479 135.712C294.583 136.651 293.666 137.462 292.727 138.144C291.831 138.784 290.615 139.382 289.079 139.936C287.586 140.448 286.029 140.704 284.407 140.704C280.951 140.704 278.135 139.403 275.959 136.8C273.783 134.155 272.695 130.763 272.695 126.624C272.695 121.419 274.21 116.854 277.239 112.928C280.269 109.003 283.81 107.04 287.863 107.04C290.978 107.04 293.389 107.915 295.095 109.664C296.845 111.414 297.719 113.867 297.719 117.024C297.719 118.902 297.399 121.035 296.759 123.424L295.479 124.768L279.479 126.24C280.205 131.062 282.466 133.472 286.263 133.472ZM286.263 113.632C284.386 113.632 282.807 114.4 281.527 115.936C280.247 117.43 279.501 119.35 279.287 121.696L290.167 120.352C290.295 119.371 290.359 118.56 290.359 117.92C290.359 115.062 288.994 113.632 286.263 113.632ZM312.97 134.048C315.188 134.048 316.298 133.067 316.298 131.104C316.298 130.422 315.807 129.782 314.826 129.184C313.887 128.587 312.714 127.99 311.306 127.392C309.94 126.795 308.554 126.134 307.146 125.408C305.78 124.64 304.607 123.595 303.626 122.272C302.687 120.95 302.218 119.435 302.218 117.728C302.218 114.87 303.476 112.374 305.994 110.24C308.511 108.107 311.412 107.04 314.698 107.04C316.234 107.04 317.727 107.232 319.178 107.616C320.671 107.958 322.1 108.512 323.466 109.28L319.178 117.088C318.879 116.832 318.495 116.512 318.026 116.128C317.556 115.744 316.66 115.254 315.338 114.656C314.058 114.016 312.906 113.696 311.882 113.696C310.9 113.696 310.132 113.931 309.578 114.4C309.066 114.827 308.81 115.446 308.81 116.256C308.81 117.024 309.535 117.814 310.986 118.624C312.479 119.392 314.1 120.118 315.85 120.8C317.599 121.44 319.199 122.528 320.65 124.064C322.143 125.558 322.89 127.35 322.89 129.44C322.89 132.427 321.652 135.051 319.178 137.312C316.746 139.574 313.93 140.704 310.73 140.704C308.682 140.704 306.762 140.256 304.97 139.36C303.22 138.464 301.962 137.568 301.194 136.672L300.042 135.328L305.098 129.44C305.354 129.782 305.716 130.208 306.186 130.72C306.655 131.232 307.572 131.915 308.938 132.768C310.346 133.622 311.69 134.048 312.97 134.048ZM192.542 207.624C192.542 202.163 194.014 197.534 196.958 193.736C199.902 189.939 203.337 188.04 207.262 188.04C211.23 188.04 214.302 189.32 216.478 191.88C218.697 194.44 219.806 197.832 219.806 202.056C219.806 207.688 218.377 212.382 215.518 216.136C212.702 219.848 209.139 221.704 204.83 221.704C201.289 221.704 198.345 220.382 195.998 217.736C193.694 215.048 192.542 211.678 192.542 207.624ZM212.638 205.384C212.638 199.198 210.526 196.104 206.302 196.104C201.907 196.104 199.71 199.006 199.71 204.808C199.71 207.838 200.329 210.206 201.566 211.912C202.803 213.619 204.425 214.472 206.43 214.472C208.478 214.472 210.014 213.704 211.038 212.168C212.105 210.59 212.638 208.328 212.638 205.384ZM233.017 221C230.713 221 228.836 220.254 227.385 218.76C225.977 217.224 225.273 215.219 225.273 212.744L225.657 205.384L224.953 190.024L233.529 188.424L232.697 207.88C232.697 209.715 233.017 211.059 233.657 211.912C234.34 212.766 235.406 213.192 236.857 213.192C238.308 213.192 240.313 212.467 242.873 211.016V207.176L242.169 190.344L250.809 188.744L250.041 204.744L250.105 209.992C250.105 212.723 250.809 215.475 252.217 218.248L245.561 221.192C244.153 218.419 243.3 216.2 243.001 214.536C239.161 218.846 235.833 221 233.017 221ZM135.108 295.728C131.78 299.91 128.9 302 126.468 302C123.439 302 120.943 300.763 118.98 298.288C117.06 295.814 116.1 292.635 116.1 288.752C116.1 283.419 117.572 278.918 120.516 275.248C123.503 271.579 127.151 269.744 131.46 269.744L135.044 270.256V269.04L134.276 254.064L143.044 252.464L142.212 285.36V290.992C142.212 293.552 142.852 296.496 144.132 299.824L137.22 302.704C135.983 300.144 135.279 297.819 135.108 295.728ZM123.268 285.424C123.268 288.155 123.759 290.288 124.74 291.824C125.764 293.36 127.215 294.128 129.092 294.128C131.012 294.128 132.996 293.36 135.044 291.824V278C132.484 277.488 130.585 277.232 129.348 277.232C127.428 277.232 125.935 277.915 124.868 279.28C123.801 280.646 123.268 282.694 123.268 285.424ZM148.417 288.624C148.417 283.163 149.889 278.534 152.833 274.736C155.777 270.939 159.212 269.04 163.137 269.04C167.105 269.04 170.177 270.32 172.353 272.88C174.572 275.44 175.681 278.832 175.681 283.056C175.681 288.688 174.252 293.382 171.393 297.136C168.577 300.848 165.014 302.704 160.705 302.704C157.164 302.704 154.22 301.382 151.873 298.736C149.569 296.048 148.417 292.678 148.417 288.624ZM168.513 286.384C168.513 280.198 166.401 277.104 162.177 277.104C157.782 277.104 155.585 280.006 155.585 285.808C155.585 288.838 156.204 291.206 157.441 292.912C158.678 294.619 160.3 295.472 162.305 295.472C164.353 295.472 165.889 294.704 166.913 293.168C167.98 291.59 168.513 289.328 168.513 286.384ZM190.876 296.048C193.095 296.048 194.204 295.067 194.204 293.104C194.204 292.422 193.713 291.782 192.732 291.184C191.793 290.587 190.62 289.99 189.212 289.392C187.847 288.795 186.46 288.134 185.052 287.408C183.687 286.64 182.513 285.595 181.532 284.272C180.593 282.95 180.124 281.435 180.124 279.728C180.124 276.87 181.383 274.374 183.9 272.24C186.417 270.107 189.319 269.04 192.604 269.04C194.14 269.04 195.633 269.232 197.084 269.616C198.577 269.958 200.007 270.512 201.372 271.28L197.084 279.088C196.785 278.832 196.401 278.512 195.932 278.128C195.463 277.744 194.567 277.254 193.244 276.656C191.964 276.016 190.812 275.696 189.788 275.696C188.807 275.696 188.039 275.931 187.484 276.4C186.972 276.827 186.716 277.446 186.716 278.256C186.716 279.024 187.441 279.814 188.892 280.624C190.385 281.392 192.007 282.118 193.756 282.8C195.505 283.44 197.105 284.528 198.556 286.064C200.049 287.558 200.796 289.35 200.796 291.44C200.796 294.427 199.559 297.051 197.084 299.312C194.652 301.574 191.836 302.704 188.636 302.704C186.588 302.704 184.668 302.256 182.876 301.36C181.127 300.464 179.868 299.568 179.1 298.672L177.948 297.328L183.004 291.44C183.26 291.782 183.623 292.208 184.092 292.72C184.561 293.232 185.479 293.915 186.844 294.768C188.252 295.622 189.596 296.048 190.876 296.048ZM217.92 295.472C219.157 295.472 220.458 295.152 221.824 294.512C223.189 293.872 224.256 293.232 225.024 292.592L226.176 291.632L229.12 295.216C228.693 295.942 228.032 296.774 227.136 297.712C226.24 298.651 225.322 299.462 224.384 300.144C223.488 300.784 222.272 301.382 220.736 301.936C219.242 302.448 217.685 302.704 216.064 302.704C212.608 302.704 209.792 301.403 207.616 298.8C205.44 296.155 204.352 292.763 204.352 288.624C204.352 283.419 205.866 278.854 208.896 274.928C211.925 271.003 215.466 269.04 219.52 269.04C222.634 269.04 225.045 269.915 226.752 271.664C228.501 273.414 229.376 275.867 229.376 279.024C229.376 280.902 229.056 283.035 228.416 285.424L227.136 286.768L211.135 288.24C211.861 293.062 214.122 295.472 217.92 295.472ZM217.92 275.632C216.042 275.632 214.464 276.4 213.184 277.936C211.904 279.43 211.157 281.35 210.944 283.696L221.824 282.352C221.952 281.371 222.016 280.56 222.016 279.92C222.016 277.062 220.65 275.632 217.92 275.632ZM237.458 271.024V264.048L246.098 262.384L245.266 271.024H253.01L252.306 276.272H245.01L244.69 289.648C244.69 291.654 244.882 292.998 245.266 293.68C245.65 294.32 246.354 294.64 247.378 294.64C248.402 294.64 249.767 294.406 251.474 293.936L251.858 298.48C249.042 300.827 246.567 302 244.434 302C242.301 302 240.551 301.232 239.186 299.696C237.821 298.118 237.138 296.07 237.138 293.552L237.522 286.384L237.458 276.272H233.042L233.746 271.024H237.458ZM260.208 271.024V264.048L268.848 262.384L268.016 271.024H275.76L275.056 276.272H267.76L267.44 289.648C267.44 291.654 267.632 292.998 268.016 293.68C268.4 294.32 269.104 294.64 270.128 294.64C271.152 294.64 272.517 294.406 274.224 293.936L274.608 298.48C271.792 300.827 269.317 302 267.184 302C265.051 302 263.301 301.232 261.936 299.696C260.571 298.118 259.888 296.07 259.888 293.552L260.272 286.384L260.208 276.272H255.792L256.496 271.024H260.208ZM291.982 295.472C293.219 295.472 294.521 295.152 295.886 294.512C297.251 293.872 298.318 293.232 299.086 292.592L300.238 291.632L303.182 295.216C302.755 295.942 302.094 296.774 301.198 297.712C300.302 298.651 299.385 299.462 298.446 300.144C297.55 300.784 296.334 301.382 294.798 301.936C293.305 302.448 291.747 302.704 290.126 302.704C286.67 302.704 283.854 301.403 281.678 298.8C279.502 296.155 278.414 292.763 278.414 288.624C278.414 283.419 279.929 278.854 282.958 274.928C285.987 271.003 289.529 269.04 293.582 269.04C296.697 269.04 299.107 269.915 300.814 271.664C302.563 273.414 303.438 275.867 303.438 279.024C303.438 280.902 303.118 283.035 302.478 285.424L301.198 286.768L285.198 288.24C285.923 293.062 288.185 295.472 291.982 295.472ZM291.982 275.632C290.105 275.632 288.526 276.4 287.246 277.936C285.966 279.43 285.219 281.35 285.006 283.696L295.886 282.352C296.014 281.371 296.078 280.56 296.078 279.92C296.078 277.062 294.713 275.632 291.982 275.632ZM318.689 296.048C320.907 296.048 322.017 295.067 322.017 293.104C322.017 292.422 321.526 291.782 320.545 291.184C319.606 290.587 318.433 289.99 317.025 289.392C315.659 288.795 314.273 288.134 312.865 287.408C311.499 286.64 310.326 285.595 309.345 284.272C308.406 282.95 307.937 281.435 307.937 279.728C307.937 276.87 309.195 274.374 311.713 272.24C314.23 270.107 317.131 269.04 320.417 269.04C321.953 269.04 323.446 269.232 324.897 269.616C326.39 269.958 327.819 270.512 329.185 271.28L324.897 279.088C324.598 278.832 324.214 278.512 323.745 278.128C323.275 277.744 322.379 277.254 321.057 276.656C319.777 276.016 318.625 275.696 317.601 275.696C316.619 275.696 315.851 275.931 315.297 276.4C314.785 276.827 314.529 277.446 314.529 278.256C314.529 279.024 315.254 279.814 316.705 280.624C318.198 281.392 319.819 282.118 321.569 282.8C323.318 283.44 324.918 284.528 326.369 286.064C327.862 287.558 328.609 289.35 328.609 291.44C328.609 294.427 327.371 297.051 324.897 299.312C322.465 301.574 319.649 302.704 316.449 302.704C314.401 302.704 312.481 302.256 310.689 301.36C308.939 300.464 307.681 299.568 306.913 298.672L305.761 297.328L310.817 291.44C311.073 291.782 311.435 292.208 311.905 292.72C312.374 293.232 313.291 293.915 314.657 294.768C316.065 295.622 317.409 296.048 318.689 296.048Z" fill="#42210B"/>
<path d="M223.642 0.000244141H427.68C444.359 0.000244141 445.924 1.60964 446 18.7382C446 26.7468 446 34.7938 446 42.8407C446 52.727 441.611 58.5898 431.573 57.4785C421.535 56.3673 419.283 61.502 417.604 70.277C402.058 150.874 386.168 231.344 369.934 311.686C368.566 317.776 365.124 323.197 360.202 327.013C338.867 342.341 316.997 357.362 294.937 371.885C290.373 374.837 285.097 376.493 279.67 376.675C244.048 377.109 208.426 377.109 172.804 376.675C166.989 376.514 161.322 374.794 156.393 371.693C134.638 357.438 113.201 342.711 92.0821 327.511C87.1634 323.823 83.6377 318.568 82.0825 312.605C65.62 231.727 49.6792 150.798 34.2599 69.8172C32.3516 60.5823 29.3364 57.0953 19.6421 57.4785C1.01688 58.0916 0.100882 56.5972 0.100882 37.7826C0.100882 30.1189 0.520713 22.4551 0.100882 14.7913C-0.776948 3.83213 4.0702 0.000244141 14.795 0.000244141C49.1448 0.345114 83.4947 0.000244141 118.035 0.000244141H223.642ZM52.8851 58.2832C52.758 59.9796 52.758 61.6832 52.8851 63.3796C68.6097 143.121 84.2198 222.901 100.25 302.719C101.571 307.526 104.477 311.741 108.494 314.675C126.661 327.703 145.172 340.323 164.026 352.534C168.612 355.423 173.881 357.037 179.293 357.209C210.513 357.63 241.733 357.707 272.915 357.209C278.744 356.905 284.39 355.068 289.288 351.882C306.73 340.387 323.371 327.933 340.966 316.859C344.319 314.8 347.165 312.008 349.293 308.69C351.421 305.373 352.776 301.616 353.255 297.699C364.973 237.156 376.919 176.65 388.674 116.145C392.491 96.9852 395.849 78.0174 399.551 58.2066L52.8851 58.2832ZM19.6421 36.2882H424.779V20.4242H19.6421V36.2882Z" fill="#42210B"/>
</svg>
