<svg width="453" height="53" viewBox="0 0 453 53" fill="none" xmlns="http://www.w3.org/2000/svg">
<path d="M95.9668 51.8547H68.2005C65.9258 51.8547 65.7167 51.6195 65.5859 49.2413C65.5859 48.1436 65.5859 47.046 65.5859 45.9745C65.5859 44.903 66.1873 43.8314 67.5468 43.9882C68.9064 44.145 69.2201 43.4394 69.4554 42.2633C71.5819 31.3391 73.7433 20.4235 75.9395 9.51672C76.134 8.70322 76.6054 7.98261 77.2729 7.47822C80.2796 5.43973 83.2601 3.42737 86.2407 1.59794C86.8787 1.20171 87.6081 0.97667 88.3585 0.94458C93.1954 0.94458 98.0322 0.94458 102.895 0.94458C103.693 0.983059 104.467 1.22605 105.144 1.6502C108.098 3.58416 111.026 5.57039 113.876 7.63503C114.553 8.12388 115.035 8.83694 115.236 9.6474C117.449 20.5891 119.62 31.5569 121.746 42.5508C121.981 43.7792 122.4 44.2757 123.707 44.2234C126.321 44.2234 126.321 44.2234 126.321 46.8369C126.321 47.8561 126.321 48.9015 126.321 49.9208C126.321 51.4104 125.772 51.9593 124.308 51.9593C119.628 51.9593 114.948 51.9593 110.242 51.9593L95.9668 51.8547ZM119.184 44.0144C119.198 43.7881 119.198 43.5612 119.184 43.3349C117.057 32.5326 114.913 21.7303 112.752 10.928C112.567 10.2786 112.171 9.70883 111.628 9.30764C109.013 7.53049 106.634 5.8056 104.098 4.08072C103.472 3.68179 102.748 3.46462 102.006 3.4535C97.7446 3.4535 93.5091 3.4535 89.2474 3.4535C88.4585 3.49524 87.6935 3.73818 87.0251 4.15914C84.6459 5.70108 82.3974 7.39983 79.992 8.91563C79.5361 9.19932 79.1493 9.58115 78.8598 10.0333C78.5703 10.4854 78.3854 10.9965 78.3187 11.5291C76.7238 19.7354 75.1028 27.9155 73.508 36.1217C73.0112 38.7352 72.5406 41.3486 72.0177 43.9621L119.184 44.0144ZM123.707 47.0198H68.5926V49.1629H123.707V47.0198Z" fill="#42210B"/>
<path d="M161.146 51.8546H133.38C131.132 51.8546 130.766 51.6194 130.766 49.2411C130.766 48.1435 130.766 47.0458 130.766 45.9743C130.766 44.9028 131.367 43.8313 132.727 43.9881C134.086 44.1449 134.4 43.4393 134.635 42.2632C136.727 31.3389 138.888 20.4234 141.119 9.51657C141.315 8.71009 141.775 7.99237 142.426 7.47808C145.329 5.36118 148.309 3.34881 151.316 1.38872C151.945 0.99351 152.665 0.76837 153.407 0.735352C158.27 0.735352 163.107 0.735352 167.944 0.735352C168.743 0.769055 169.518 1.01244 170.193 1.441C173.147 3.37496 176.075 5.36119 178.951 7.42582C179.621 7.92234 180.1 8.63224 180.311 9.43817C182.525 20.3798 184.695 31.3477 186.821 42.3416C187.056 43.5699 187.475 44.0665 188.782 44.0142C191.397 44.0142 191.397 44.0142 191.397 46.6277C191.397 47.6469 191.397 48.6923 191.397 49.7116C191.397 51.2012 190.847 51.7501 189.383 51.7501C184.703 51.7501 180.023 51.7501 175.343 51.7501L161.146 51.8546ZM184.39 44.0142C184.403 43.7879 184.403 43.561 184.39 43.3347C182.246 32.5411 180.128 21.7214 177.958 10.9278C177.772 10.2784 177.377 9.70868 176.834 9.30749C174.402 7.47807 171.788 5.7532 169.173 4.21126C168.549 3.80845 167.824 3.59095 167.081 3.58403C162.846 3.58403 158.61 3.58403 154.349 3.58403C153.558 3.6186 152.792 3.86209 152.126 4.28966C149.747 5.8316 147.499 7.53034 145.093 9.04615C144.634 9.32549 144.244 9.70619 143.954 10.1591C143.664 10.6121 143.481 11.1253 143.42 11.6596C141.825 19.8659 140.204 28.046 138.609 36.2523C138.086 38.8657 137.616 41.4792 137.119 44.0926L184.39 44.0142ZM188.913 47.0197H133.798V49.1627H188.913V47.0197Z" fill="#42210B"/>
<path d="M226.353 51.8548H198.587C196.313 51.8548 195.973 51.6196 195.973 49.2414V46.0268C195.973 44.6939 196.548 43.8838 197.934 44.0406C199.319 44.1974 199.607 43.4917 199.816 42.3157C202.047 31.4089 204.252 20.502 206.431 9.59518C206.625 8.78169 207.097 8.06108 207.764 7.55669C210.666 5.43979 213.647 3.42742 216.654 1.46733C217.28 1.06763 218.002 0.842101 218.745 0.813965C223.582 0.813965 228.445 0.813965 233.282 0.813965C234.08 0.847669 234.856 1.09106 235.53 1.51961C238.485 3.45357 241.413 5.4398 244.289 7.50443C244.958 8.00095 245.438 8.71085 245.649 9.51678C247.862 20.4585 250.032 31.4263 252.159 42.4202C252.394 43.6486 252.786 44.1451 254.12 44.0928C256.734 44.0928 256.734 44.0928 256.734 46.7063C256.734 47.7255 256.734 48.7709 256.734 49.7902C256.734 51.2798 256.185 51.8287 254.721 51.8287C250.041 51.8287 245.361 51.8287 240.681 51.8287L226.353 51.8548ZM249.597 44.0144C249.61 43.7881 249.61 43.5612 249.597 43.3349C247.453 32.5414 245.335 21.7216 243.139 10.9281C242.973 10.2694 242.574 9.69344 242.014 9.3077C239.557 7.53055 237.047 5.80567 234.485 4.08079C233.859 3.68185 233.135 3.46469 232.393 3.45356C228.157 3.45356 223.896 3.45356 219.66 3.45356C218.87 3.48813 218.103 3.73164 217.438 4.15921C215.059 5.70115 212.784 7.39989 210.405 8.9157C209.945 9.19504 209.555 9.57573 209.265 10.0287C208.975 10.4816 208.793 10.9949 208.732 11.5292C207.137 19.7354 205.516 27.9155 203.895 36.1218C203.398 38.7352 202.927 41.3487 202.431 43.9622L249.597 44.0144ZM254.12 47.0199H198.979V49.1629H254.12V47.0199Z" fill="#42210B"/>
<path d="M291.56 51.8546H263.794C261.52 51.8546 261.18 51.6194 261.18 49.2411C261.18 48.1435 261.18 47.0458 261.18 45.9743C261.18 44.9028 261.781 43.8313 263.141 43.9881C264.5 44.1449 264.814 43.4393 265.049 42.2632C267.176 31.3389 269.337 20.4234 271.533 9.51657C271.728 8.70307 272.199 7.98246 272.867 7.47808C275.769 5.36118 278.749 3.34881 281.73 1.38872C282.368 0.99248 283.097 0.767442 283.848 0.735352C288.685 0.735352 293.521 0.735352 298.384 0.735352C299.182 0.773831 299.956 1.01684 300.633 1.441C303.587 3.37496 306.516 5.36119 309.365 7.42582C310.043 7.91468 310.524 8.62771 310.725 9.43817C312.939 20.3798 315.109 31.3477 317.235 42.3416C317.47 43.5699 317.889 44.0665 319.196 44.0142C321.811 44.0142 321.811 44.0142 321.811 46.6277C321.811 47.6469 321.811 48.6923 321.811 49.7116C321.811 51.2012 321.262 51.7501 319.797 51.7501C315.117 51.7501 310.437 51.7501 305.757 51.7501L291.56 51.8546ZM314.778 44.0142C314.791 43.7879 314.791 43.561 314.778 43.3347C312.651 32.5324 310.507 21.7301 308.346 10.9278C308.17 10.274 307.772 9.70137 307.222 9.30749C304.764 7.53034 302.228 5.80546 299.692 4.08057C299.066 3.68164 298.342 3.46447 297.6 3.45335C293.338 3.45335 289.103 3.45335 284.867 3.45335C284.07 3.49183 283.295 3.73484 282.619 4.15899C280.24 5.70093 277.991 7.39968 275.586 8.91549C275.13 9.19917 274.743 9.581 274.454 10.0331C274.164 10.4853 273.979 10.9963 273.912 11.5289C272.318 19.7352 270.697 27.9153 269.102 36.1216C268.605 38.735 268.134 41.3485 267.611 43.9619L314.778 44.0142ZM319.327 47.0197H264.186V49.1627H319.327V47.0197Z" fill="#42210B"/>
<path d="M30.7599 51.8548H2.99357C0.718928 51.8548 0.509766 51.6196 0.509766 49.2414C0.509766 48.1437 0.509766 47.046 0.509766 45.9745C0.509766 44.903 1.08496 43.8315 2.47066 43.9883C3.85636 44.1451 4.14396 43.4395 4.35312 42.2634C6.46217 31.3392 8.62352 20.4236 10.8372 9.51678C11.0819 8.71287 11.5997 8.01961 12.3013 7.55669C15.2034 5.43979 18.184 3.42742 21.1907 1.46733C21.8174 1.06763 22.5394 0.842101 23.2823 0.813965C28.1192 0.813965 32.9822 0.813965 37.8191 0.813965C38.6176 0.847669 39.3931 1.09106 40.0676 1.51961C43.022 3.45357 45.9503 5.4398 48.8001 7.50443C49.476 7.99967 49.9643 8.70889 50.1858 9.51678C52.3994 20.4585 54.5608 31.4263 56.6698 42.4202C56.9313 43.6486 57.3235 44.1451 58.6569 44.0928C61.2714 44.0928 61.2714 44.0928 61.2714 46.7063C61.2714 47.7255 61.2714 48.7709 61.2714 49.7902C61.2714 51.2798 60.7223 51.8287 59.2582 51.8287C54.5782 51.8287 49.8982 51.8287 45.2182 51.8287L30.7599 51.8548ZM54.003 44.0144C54.0168 43.7881 54.0168 43.5612 54.003 43.3349C51.8591 32.5414 49.7413 21.7216 47.5451 10.9281C47.3796 10.2694 46.98 9.69344 46.4209 9.3077C43.9632 7.53055 41.4533 5.80567 38.891 4.08079C38.2655 3.68185 37.5413 3.46469 36.7994 3.45356C32.5639 3.45356 28.3022 3.45356 24.0667 3.45356C23.269 3.49204 22.4947 3.73506 21.8182 4.15921C19.4651 5.70115 17.1905 7.39989 14.7851 8.9157C14.3328 9.2008 13.9501 9.5835 13.6651 10.0357C13.38 10.488 13.1999 10.9983 13.1379 11.5292C11.5431 19.7354 9.89592 27.9155 8.30106 36.1218C7.8043 38.7352 7.33368 41.3487 6.83692 43.9622L54.003 44.0144ZM58.5261 47.0199H3.38575V49.1629H58.5261V47.0199Z" fill="#42210B"/>
<path d="M422.051 52.1161H394.285C392.01 52.1161 391.801 51.907 391.801 49.5026V46.2358C391.801 44.9029 392.376 44.0927 393.762 44.2495C395.147 44.4064 395.435 43.7007 395.644 42.5247C397.771 31.6004 399.932 20.6849 402.128 9.77803C402.329 8.9671 402.799 8.24832 403.462 7.73954C406.364 5.64877 409.344 3.6364 412.351 1.65017C412.975 1.24737 413.7 1.02987 414.443 1.02295C419.279 1.02295 424.142 1.02295 428.979 1.02295C429.778 1.03582 430.556 1.27115 431.228 1.70245C434.182 3.63641 437.111 5.62264 439.987 7.68727C440.656 8.19477 441.135 8.91287 441.346 9.72577C443.577 20.6674 445.747 31.6266 447.856 42.6031C448.092 43.8575 448.484 44.328 449.817 44.2757C452.432 44.2757 452.432 44.2757 452.432 46.8891C452.432 47.9084 452.432 48.9538 452.432 49.9991C452.432 51.4888 451.883 52.0115 450.419 52.0115C445.739 52.0115 441.058 52.0115 436.378 52.0115L422.051 52.1161ZM445.294 44.2757C445.308 44.0407 445.308 43.805 445.294 43.57C443.15 32.7765 441.032 21.9568 438.836 11.1632C438.671 10.5045 438.271 9.92857 437.712 9.54283C435.254 7.76568 432.744 6.06693 430.182 4.31591C429.557 3.91698 428.832 3.69981 428.09 3.68869C423.855 3.68869 419.593 3.68869 415.358 3.68869C414.563 3.71918 413.793 3.97278 413.135 4.42045C410.756 5.93626 408.481 7.66113 406.102 9.1508C405.643 9.43014 405.253 9.81083 404.963 10.2638C404.673 10.7167 404.49 11.23 404.429 11.7643C402.843 19.9705 401.231 28.1681 399.592 36.3569C399.095 38.9704 398.625 41.5838 398.128 44.1973L445.294 44.2757ZM449.817 47.255H394.677V49.3981H449.817V47.255Z" fill="#42210B"/>
<path d="M356.844 52.1161H329.077C326.829 52.1161 326.463 51.907 326.463 49.5026C326.463 48.4049 326.463 47.3334 326.463 46.2358C326.463 45.1381 327.064 44.0927 328.424 44.2495C329.783 44.4064 330.097 43.7007 330.332 42.5247C332.424 31.6004 334.585 20.6849 336.816 9.77803C337.017 8.97391 337.477 8.25785 338.124 7.73954C341.052 5.64877 344.006 3.6364 347.013 1.65017C347.639 1.25124 348.363 1.03407 349.105 1.02295C353.968 1.02295 358.805 1.02295 363.641 1.02295C364.44 1.03582 365.218 1.27115 365.89 1.70245C368.844 3.63641 371.773 5.62264 374.649 7.68727C375.318 8.19477 375.797 8.91287 376.008 9.72577C378.239 20.6674 380.409 31.6266 382.518 42.6031C382.754 43.8575 383.172 44.328 384.479 44.2757C387.094 44.2757 387.094 44.2757 387.094 46.8891C387.094 47.9084 387.094 48.9538 387.094 49.9991C387.094 51.4888 386.545 52.0115 385.081 52.0115C380.401 52.0115 375.721 52.0115 371.041 52.0115L356.844 52.1161ZM380.087 44.2757C380.101 44.0407 380.101 43.805 380.087 43.57C377.943 32.7765 375.825 21.9568 373.655 11.1632C373.47 10.5138 373.074 9.94402 372.531 9.54283C370.047 7.76568 367.537 6.06693 364.975 4.31591C364.351 3.91311 363.626 3.69561 362.883 3.68869C358.648 3.68869 354.412 3.68869 350.151 3.68869C349.356 3.71918 348.585 3.97278 347.928 4.42045C345.549 5.93626 343.3 7.66113 340.895 9.1508C340.435 9.43014 340.046 9.81083 339.756 10.2638C339.466 10.7167 339.283 11.23 339.222 11.7643C337.627 19.9705 336.006 28.1768 334.411 36.3569C333.888 38.9704 333.418 41.5838 332.921 44.1973L380.087 44.2757ZM384.61 47.255H329.496V49.3981H384.61V47.255Z" fill="#42210B"/>
</svg>
