<svg width="886" height="768" viewBox="0 0 886 768" fill="none" xmlns="http://www.w3.org/2000/svg">
<path d="M767.391 384C767.517 593.638 595.604 768 383.696 768C307.808 768 233.624 745.479 170.526 703.284C107.428 661.09 58.2483 601.117 29.2073 530.951C0.166249 460.784 -7.4322 383.574 7.37278 309.085C22.1778 234.597 58.7212 166.175 112.382 112.471C166.043 58.7678 234.411 22.1953 308.84 7.37862C383.27 -7.4381 460.419 0.166381 530.53 29.2304C600.641 58.2945 660.566 107.513 702.727 170.661C744.888 233.81 767.391 308.052 767.391 384Z" fill="#FFF3E5"/>
<path d="M864.757 434.132L668.316 402.325C657.126 400.513 646.587 408.123 644.777 419.322L640.179 447.765C638.368 458.965 645.972 469.512 657.162 471.324L853.603 503.13C864.793 504.942 875.332 497.332 877.143 486.133L881.741 457.69C883.551 446.491 875.947 435.943 864.757 434.132Z" fill="#411617"/>
<path d="M381.032 726.612C571.588 726.612 726.064 572.013 726.064 381.306C726.064 190.599 571.588 36 381.032 36C190.476 36 36 190.599 36 381.306C36 572.013 190.476 726.612 381.032 726.612Z" fill="#411617"/>
<path d="M384.006 696.51C557.427 696.51 698.012 555.813 698.012 382.255C698.012 208.697 557.427 68 384.006 68C210.585 68 70 208.697 70 382.255C70 555.813 210.585 696.51 384.006 696.51Z" fill="#895B2C"/>
<path d="M656.803 519.669C645.774 508.48 649.266 483.489 644.242 470.037C634.769 443.163 623.393 416.999 610.201 391.744C595.347 364.03 576.749 338.497 554.931 315.864C530.663 290.722 504.46 267.088 473.811 250.117C446.402 235.031 419.37 218.563 388.746 209.713C351.062 198.826 313.379 187.713 273.585 188.442C266.525 188.442 254.868 196.262 254.642 184.772C254.549 180.761 255.023 176.757 256.049 172.879C259.667 165.337 261.827 161.364 265.797 154.4C275.061 139.119 287.943 126.356 303.305 117.239C323.855 105.699 346.54 102.858 368.975 101.047C418.491 97.0749 466.777 103.009 512.826 123.324C575.632 150.98 622.209 195.181 653.964 256.176C684.89 315.613 691.648 378.217 681.247 443.085C677.479 466.367 669.264 498.876 656.803 519.669Z" fill="#070605"/>
<path d="M661.901 508.757C660.221 513.292 658.074 517.639 655.495 521.73C642.356 539.657 631.302 558.966 616.606 575.937C582.429 616.071 537.864 646.005 487.803 662.452C415.601 686.338 344.805 681.535 276.246 650.183C226.001 627.178 184.348 592.355 154.955 544.912C141.891 523.842 141.615 501.189 157.191 480.698C181.836 448.314 202.863 414.246 214.269 374.723C222.936 344.703 226.83 313.878 230.95 283.104C234.467 256.05 238.487 229.073 246.551 203.1C250.144 191.359 252.882 177.455 257.756 169.334C258.007 180.799 266.524 188.568 273.583 188.442C313.427 187.713 351.011 198.826 388.745 209.713C419.369 218.563 446.401 234.855 473.809 250.117C504.459 267.088 530.661 290.772 554.93 315.864C576.748 338.497 595.346 364.03 610.199 391.744C623.423 417.037 634.824 443.244 644.316 470.163C649.29 483.489 650.898 497.568 661.901 508.757Z" fill="#27130F"/>
<path d="M145.307 452.714C158.808 452.714 169.752 441.762 169.752 428.251C169.752 414.74 158.808 403.787 145.307 403.787C131.807 403.787 120.863 414.74 120.863 428.251C120.863 441.762 131.807 452.714 145.307 452.714Z" fill="#411617"/>
<path d="M194.825 362.805C203.358 362.805 210.276 355.882 210.276 347.342C210.276 338.803 203.358 331.88 194.825 331.88C186.292 331.88 179.375 338.803 179.375 347.342C179.375 355.882 186.292 362.805 194.825 362.805Z" fill="#411617"/>
<path d="M195.704 275.586C200.13 275.586 203.718 271.995 203.718 267.566C203.718 263.136 200.13 259.545 195.704 259.545C191.277 259.545 187.689 263.136 187.689 267.566C187.689 271.995 191.277 275.586 195.704 275.586Z" fill="#411617"/>
<path d="M179.274 272.267C181.869 272.267 183.972 270.162 183.972 267.565C183.972 264.969 181.869 262.864 179.274 262.864C176.68 262.864 174.576 264.969 174.576 267.565C174.576 270.162 176.68 272.267 179.274 272.267Z" fill="#411617"/>
<path d="M98.0026 397.954C100.597 397.954 102.7 395.849 102.7 393.252C102.7 390.656 100.597 388.551 98.0026 388.551C95.408 388.551 93.3047 390.656 93.3047 393.252C93.3047 395.849 95.408 397.954 98.0026 397.954Z" fill="#411617"/>
<path d="M122.421 470.465C126.403 470.465 129.631 467.234 129.631 463.249C129.631 459.264 126.403 456.033 122.421 456.033C118.439 456.033 115.211 459.264 115.211 463.249C115.211 467.234 118.439 470.465 122.421 470.465Z" fill="#411617"/>
<path d="M129.808 554.34C133.79 554.34 137.018 551.109 137.018 547.124C137.018 543.139 133.79 539.908 129.808 539.908C125.826 539.908 122.598 543.139 122.598 547.124C122.598 551.109 125.826 554.34 129.808 554.34Z" fill="#411617"/>
<path d="M219.193 637.26C224.16 637.26 228.187 633.23 228.187 628.259C228.187 623.287 224.16 619.258 219.193 619.258C214.226 619.258 210.199 623.287 210.199 628.259C210.199 633.23 214.226 637.26 219.193 637.26Z" fill="#411617"/>
<path d="M230.499 234.604C233.093 234.604 235.197 232.499 235.197 229.902C235.197 227.306 233.093 225.201 230.499 225.201C227.904 225.201 225.801 227.306 225.801 229.902C225.801 232.499 227.904 234.604 230.499 234.604Z" fill="#411617"/>
<path d="M154.553 198.323C157.148 198.323 159.251 196.218 159.251 193.622C159.251 191.025 157.148 188.92 154.553 188.92C151.959 188.92 149.855 191.025 149.855 193.622C149.855 196.218 151.959 198.323 154.553 198.323Z" fill="#411617"/>
<path d="M239.543 156.813C247.813 156.813 254.516 150.104 254.516 141.828C254.516 133.552 247.813 126.844 239.543 126.844C231.274 126.844 224.57 133.552 224.57 141.828C224.57 150.104 231.274 156.813 239.543 156.813Z" fill="#411617"/>
<path d="M126.089 251.097C131.486 251.097 135.862 246.718 135.862 241.317C135.862 235.915 131.486 231.536 126.089 231.536C120.692 231.536 116.316 235.915 116.316 241.317C116.316 246.718 120.692 251.097 126.089 251.097Z" fill="#411617"/>
<path d="M124.355 352.698C140.63 352.698 153.824 339.494 153.824 323.206C153.824 306.918 140.63 293.714 124.355 293.714C108.08 293.714 94.8867 306.918 94.8867 323.206C94.8867 339.494 108.08 352.698 124.355 352.698Z" fill="#411617"/>
<path d="M129.053 350.033C131.648 350.033 133.751 347.928 133.751 345.331C133.751 342.734 131.648 340.629 129.053 340.629C126.459 340.629 124.355 342.734 124.355 345.331C124.355 347.928 126.459 350.033 129.053 350.033Z" fill="#925F36"/>
<path d="M184.349 355.312C185.306 355.312 186.082 354.536 186.082 353.578C186.082 352.619 185.306 351.843 184.349 351.843C183.391 351.843 182.615 352.619 182.615 353.578C182.615 354.536 183.391 355.312 184.349 355.312Z" fill="#925F36"/>
<path d="M135.661 343.244C136.022 343.244 136.314 342.951 136.314 342.59C136.314 342.229 136.022 341.937 135.661 341.937C135.3 341.937 135.008 342.229 135.008 342.59C135.008 342.951 135.3 343.244 135.661 343.244Z" fill="#925F36"/>
<path d="M135.661 345.834C135.938 345.834 136.163 345.609 136.163 345.331C136.163 345.053 135.938 344.828 135.661 344.828C135.383 344.828 135.158 345.053 135.158 345.331C135.158 345.609 135.383 345.834 135.661 345.834Z" fill="#925F36"/>
<path d="M375.188 585C371.988 583.34 370.458 580.51 369.298 577.22C363.838 561.69 358.298 546.22 352.728 530.69C352.318 529.54 351.848 528.41 351.298 527.01C342.078 529.48 333.058 531.89 324.048 534.32C315.618 536.6 307.188 538.87 298.778 541.21C295.008 542.26 291.538 542.21 288.918 538.85C286.298 535.49 287.248 532.38 288.988 529.07C301.175 505.863 313.328 482.64 325.448 459.4C326.078 458.2 326.638 456.97 327.278 455.65C317.335 446.085 308.691 435.256 301.568 423.44C258.428 351.63 285.588 255.87 360.248 217.9C370.248 212.79 381.248 209.47 391.928 205.65C395.988 204.19 399.258 205.65 401.058 208.77C402.748 211.67 402.768 214.77 400.448 217.1C398.736 218.694 396.648 219.826 394.378 220.39C377.798 224.91 362.438 232 348.888 242.54C312.338 271 294.358 308.62 296.348 354.9C298.838 413 338.638 461.46 395.068 476.61C466.168 495.71 541.118 450.47 557.378 378.61C573.378 307.9 532.068 239.25 462.108 220.37C458.348 219.37 455.328 217.65 454.768 213.42C454.028 207.82 459.268 203.63 465.288 205.72C475.998 209.47 486.998 212.8 496.908 218.12C539.108 240.8 565.518 275.91 573.538 323.12C581.948 372.66 567.748 415.98 532.838 452.32C531.723 453.362 530.544 454.334 529.308 455.23C530.488 457.51 531.378 459.23 532.308 461.01C544.155 483.677 556.008 506.343 567.868 529.01C570.208 533.48 570.068 536.71 567.488 539.36C564.908 542.01 561.568 542.09 558.098 541.14C541.978 536.733 525.851 532.347 509.718 527.98C508.408 527.62 507.088 527.35 505.468 526.98C502.028 536.56 498.658 545.92 495.308 555.28C492.668 562.68 490.308 570.2 487.308 577.45C486.158 580.24 483.618 582.45 481.708 584.94H477.208C475.288 582.74 472.858 580.81 471.528 578.3C457.838 552.41 444.318 526.42 430.738 500.46C430.078 499.2 429.378 497.97 428.458 496.28C427.458 498.09 426.798 499.28 426.178 500.46C412.598 526.46 399.078 552.46 385.378 578.3C384.048 580.81 381.618 582.74 379.708 584.94L375.188 585ZM378.738 558.8L412.088 495C385.562 491.956 360.346 481.825 339.088 465.67L309.238 522.8L351.568 511.38C358.948 509.38 361.508 510.74 364.058 517.86C368.848 531.2 373.628 544.54 378.738 558.8ZM517.738 465.67C496.488 481.843 471.269 491.986 444.738 495.03L478.118 558.81C483.318 544.22 488.118 530.58 493.048 516.97C495.148 511.09 498.288 509.48 504.368 511.1C511.848 513.1 519.308 515.1 526.768 517.1L547.578 522.7L517.738 465.67Z" fill="#895B2C"/>
<path d="M430.687 201C431.277 201.42 431.887 201.82 432.477 202.25C435.377 204.38 436.657 207.18 435.527 210.68C435.062 212.199 434.122 213.529 432.845 214.473C431.568 215.418 430.021 215.928 428.432 215.928C426.844 215.928 425.297 215.418 424.02 214.473C422.742 213.529 421.802 212.199 421.337 210.68C420.227 207.18 421.487 204.37 424.397 202.25C424.997 201.82 425.587 201.41 426.187 201H430.687Z" fill="#895B2C"/>
<path d="M538.408 348.35C538.588 408.79 489.148 458.27 428.518 458.35C399.385 458.329 371.449 446.76 350.83 426.179C330.211 405.598 318.592 377.683 318.518 348.55C318.418 288.05 367.828 238.55 428.398 238.55C488.968 238.55 538.228 287.66 538.408 348.35ZM523.408 348.55C523.538 296.48 481.048 253.74 428.918 253.55C416.424 253.507 404.044 255.925 392.485 260.667C380.926 265.409 370.414 272.382 361.55 281.187C352.687 289.992 345.644 300.458 340.826 311.985C336.007 323.512 333.507 335.876 333.468 348.37C333.308 400.57 375.968 443.3 428.328 443.37C453.506 443.391 477.663 433.416 495.491 415.637C513.319 397.858 523.36 373.728 523.408 348.55Z" fill="#895B2C"/>
<path d="M426.759 375.26C433.699 375.26 439.919 375.16 446.139 375.26C451.719 375.37 455.309 379.26 454.389 384.02C454.167 385.715 453.332 387.269 452.043 388.391C450.753 389.513 449.098 390.124 447.389 390.11C435.899 390.24 424.389 390.35 412.909 390.11C405.709 389.92 402.489 383.35 406.589 377.32C411.079 370.71 416.129 364.49 420.759 357.97C425.389 351.45 429.989 344.91 434.159 338.1C435.66 335.533 436.431 332.604 436.389 329.63C436.309 325.63 432.509 322.3 428.559 321.71C426.447 321.307 424.262 321.62 422.349 322.6C420.436 323.58 418.905 325.171 417.999 327.12C417.529 328.12 417.309 329.26 416.909 330.3C416.287 332.125 414.983 333.639 413.27 334.524C411.557 335.408 409.568 335.596 407.72 335.046C405.872 334.496 404.309 333.253 403.358 331.575C402.406 329.898 402.142 327.918 402.619 326.05C403.312 322.836 404.638 319.792 406.518 317.095C408.398 314.398 410.796 312.102 413.572 310.34C416.347 308.578 419.445 307.384 422.686 306.83C425.927 306.276 429.245 306.371 432.449 307.11C446.289 310.47 454.759 324.21 450.379 337.53C448.379 343.58 444.849 349.23 441.379 354.65C436.999 361.58 431.889 368.09 426.759 375.26Z" fill="#895B2C"/>
</svg>
