<svg width="654" height="586" viewBox="0 0 654 586" fill="none" xmlns="http://www.w3.org/2000/svg">
<path d="M38.069 350.244C36.4154 341.202 35.0091 332.091 32.9903 323.126C31.6628 317.835 32.0932 312.255 34.2167 307.23C35.9612 303.05 37.2355 298.641 38.7496 294.354C41.1727 287.428 43.6711 285.162 51.1182 285.224C76.4115 285.344 101.332 281.874 126.231 277.962C127.73 277.877 129.173 277.362 130.388 276.479C131.602 275.596 132.537 274.382 133.08 272.982C133.82 271.328 134.671 269.727 135.627 268.189C139.331 262.009 145.316 260.383 151.419 264.03C154.666 265.972 157.864 268.068 160.983 270.273C166.289 274.034 167.534 278.311 165.088 284.487C161.964 292.397 158.687 300.257 155.372 308.428L170.745 313.131C170.804 307.337 170.817 301.942 170.93 296.508C171.215 286.819 177.929 282.293 186.852 285.996C196.236 289.912 205.529 294.051 214.758 298.289C221.61 301.438 224.087 307.667 220.079 313.991C208.249 332.636 201.954 353.522 195.213 374.184C194.174 377.92 192.336 381.385 189.826 384.341C187.316 387.296 184.194 389.671 180.676 391.301C194.855 396.278 206.701 407.652 223.615 404.522C226.672 392.339 235.278 389.156 247.033 389.853C263.879 390.81 280.701 390.914 297.637 391.341C306.022 391.554 307.945 393.828 311.054 401.365C314.018 408.079 315.629 415.312 315.792 422.65C315.955 429.987 314.669 437.285 312.006 444.125C308.453 453.597 306.43 463.684 304.106 473.583C303.685 475.965 304.064 478.419 305.183 480.563C307.524 485.08 310.476 489.244 313.127 493.593C314.197 495.425 314.692 497.537 314.546 499.653C314.4 501.77 313.62 503.794 312.308 505.462C310.997 507.13 309.214 508.365 307.191 509.006C305.168 509.646 302.999 509.664 300.966 509.055C295.256 507.223 289.66 505.053 284.208 502.555C281.69 501.17 279.613 499.102 278.218 496.59C269.946 482.48 262.075 468.147 253.728 454.084C251.834 451.094 249.322 448.544 246.361 446.605C241.539 443.34 236.502 440.405 231.285 437.82C224.961 434.658 222.145 429.937 223.047 422.885C223.363 420.629 223.195 418.254 223.244 414.51C210.99 416.346 199.118 416.98 187.9 420.042C171.983 424.401 158.57 421.289 143.797 414.425C136.978 411.463 130.818 407.171 125.677 401.801C120.535 396.431 116.516 390.09 113.853 383.149C110.142 374.184 104.846 366.412 96.1115 361.191C90.1549 357.39 84.4773 353.168 79.1222 348.558C76.0399 346.041 73.4368 345.461 69.9718 347.801C66.2151 350.339 61.8812 352.031 58.2037 354.666C53.059 358.38 47.8463 359.308 42.0408 356.759L38.069 350.244ZM145.339 273.082C144.489 274.389 143.726 275.75 143.056 277.157C140.117 284.727 134.663 287.764 126.544 288.937C102.126 292.452 77.7692 296.136 53.0289 296.009C51.7475 296.006 49.5776 296.441 49.302 297.208C47.0356 303.646 43.1207 310.325 43.357 316.806C43.7155 326.907 46.9143 336.927 49.1546 348.15C55.8651 344.059 61.748 340.473 67.631 336.886C73.158 333.392 78.0741 334.11 83.1011 338.124C89.3324 343.376 95.8971 348.219 102.754 352.622C112.782 358.643 118.636 367.705 123.398 377.783C124.092 379.259 124.794 380.75 125.443 382.254C129.713 392.033 135.54 399.832 146.468 403.2C152.292 405.035 157.597 408.488 163.179 411.111C164.619 411.781 166.252 412.767 167.737 412.46C174.973 411.33 182.179 409.847 189.405 408.496C185.645 405.906 181.582 403.788 177.305 402.19C172.659 400.358 168.749 397.871 168.176 392.463C167.56 386.646 171.218 383.405 175.92 381.199C178.19 380.132 180.199 378.582 181.806 376.657C183.413 374.733 184.58 372.48 185.225 370.057C192.227 349.484 198.028 328.363 210.174 309.896C210.44 309.486 210.387 308.858 210.542 308.062C201.087 303.961 191.637 299.837 181.803 295.554C181.718 301.508 181.763 306.93 181.538 312.35C181.166 321.286 175.384 325.513 166.827 323.156C162.618 322.007 158.498 320.597 154.324 319.303C145.074 316.419 142.596 311.305 146.186 302.264C149.173 294.706 152.305 287.183 155.472 279.412L145.339 273.082ZM302.833 497.866C300.136 493.443 298.056 489.489 295.495 485.829C293.962 483.811 292.95 481.444 292.551 478.941C292.152 476.437 292.376 473.874 293.205 471.478C297.375 456.822 301.202 442.043 305 427.283C305.625 425.04 305.728 422.683 305.298 420.394C304.093 415.298 302.578 410.28 300.762 405.369C300.407 404.579 299.874 403.883 299.203 403.335C298.532 402.787 297.743 402.404 296.898 402.214C278.779 401.539 260.647 401.035 242.504 400.704C236.942 400.586 234.934 402.574 234.604 408.059C234.303 412.948 234.402 417.882 233.931 422.73C233.675 423.95 233.858 425.221 234.448 426.319C235.039 427.417 235.998 428.271 237.156 428.73C243.165 431.816 248.958 435.157 254.574 438.749C257.349 440.397 259.713 442.654 261.487 445.349C268.979 458.18 276.795 470.999 283.287 484.356C287.381 492.799 294.014 495.689 302.833 497.866Z" fill="#895B2C" fill-opacity="0.2"/>
<path d="M418.009 276.866C431.919 277.239 432.614 286.537 433.107 296.555C434.306 319.373 436.15 342.168 437.635 364.914C438.504 378.831 429.425 389.938 416.417 390.233C411.473 390.316 405.381 389.057 401.721 386.067C394.052 379.782 387.128 372.64 381.086 364.779C374.949 356.778 370.342 347.596 364.618 338.207C358.299 343.009 352.386 347.088 346.955 351.72C342.284 355.703 337.43 357.424 331.422 355.762C329.156 355.034 326.808 354.594 324.432 354.451C313.557 354.25 308.249 348.219 305.984 338.105C304.544 332.678 302.757 327.35 300.634 322.153C299.814 320.225 299.531 318.112 299.813 316.036C300.095 313.961 300.932 312 302.237 310.361C308.375 302.284 313.835 293.569 320.825 286.315C324.863 282.14 331.192 279.995 336.714 277.475C346.604 273.013 356.687 268.971 366.809 264.72C366.162 261.358 365.08 259.582 361.342 261.407C359.099 262.568 356.472 262.931 354.226 264.053C346.08 268.183 336.792 269.49 327.823 267.767C323.414 266.967 320.879 268.698 318.601 272.275C315.012 277.93 311.012 283.32 307.089 288.766C301.626 296.224 294.144 296.41 288.203 289.136C280.648 279.893 280.929 278.999 286.001 268.395C289.401 260.82 292.297 253.029 294.67 245.072C295.161 243.576 294.058 241.09 292.942 239.666C291.294 237.991 289.466 236.503 287.492 235.228C285.737 233.912 284.414 232.101 283.695 230.028C282.975 227.956 282.891 225.715 283.454 223.594C285.486 213.997 287.398 204.37 289.527 194.795C291.018 188.067 293.803 185.729 300.813 185.108C307.823 184.487 314.583 184.37 321.412 183.488C323.517 183.216 325.419 181.19 327.396 179.964C327.531 179.881 327.566 179.633 327.673 179.505C338.944 165.628 344.935 148.207 344.585 130.333C344.572 122.086 346.154 113.712 346.824 105.399C346.909 103.217 347.589 101.1 348.791 99.276C349.992 97.4522 351.669 95.9915 353.641 95.0517C355.875 93.8754 358.103 92.6206 360.297 91.3448C369.982 85.6672 375.367 87.255 380.303 97.7221C389.927 90.1833 399.497 82.7596 409.006 75.2699C426.519 61.4768 443.888 47.4822 461.574 33.8722C472.172 25.6978 488.448 28.9011 496.533 40.8751C503.765 51.5527 510.233 62.7373 516.969 73.8202C518.119 75.5953 518.663 77.6947 518.521 79.8049C518.379 81.9151 517.558 83.9227 516.181 85.5277C514.891 87.3212 513.048 88.6413 510.934 89.2847C508.82 89.9281 506.554 89.8594 504.483 89.0889C498.102 87.1183 491.791 84.9597 484.252 82.4775C488.632 91.2198 484.135 96.8094 480.021 102.62C478.588 104.542 477.839 106.887 477.892 109.284C478.25 112.512 480.183 114.904 484.315 113.623C486.421 113.068 488.583 112.754 490.76 112.686C496.841 112.199 500.809 114.815 502.54 120.736C504.812 127.804 506.717 134.984 508.247 142.249C508.787 146.099 508.339 150.023 506.944 153.652C504.57 159.038 501.901 164.289 498.95 169.382C503.621 172.271 507.931 174.906 512.214 177.599C516.993 180.629 519.156 184.821 517.849 190.53C517.26 192.841 516.808 195.184 516.493 197.548C515.627 205.403 512.841 211.869 505.074 215.345C504.207 215.893 503.431 216.575 502.776 217.365C503.812 219.526 504.657 221.773 505.302 224.08C506.612 231.104 501.403 236.777 493.845 236.431C486.813 236.136 479.8 235.5 472.295 234.937C472.702 240.715 473.154 246.094 473.44 251.472C473.941 261.197 466.763 266.316 457.698 262.617C452.396 260.722 447.256 258.403 442.326 255.684C430.443 248.482 417.322 249.877 404.182 250.396C405.709 250.869 407.229 251.366 408.755 251.736C410.281 252.106 412.291 252.593 414.059 253.022C426.169 255.959 428.7 263.496 420.887 273.192C420.023 274.111 419.338 275.086 418.009 276.866ZM506.785 78.2744C499.97 67.0953 494.134 56.8461 487.6 47.0431C486.542 45.2831 485.112 43.7757 483.41 42.6263C481.707 41.4769 479.775 40.7132 477.747 40.3888C475.719 40.0643 473.645 40.1869 471.669 40.7479C469.693 41.3089 467.864 42.2947 466.309 43.6366C440.511 63.9467 414.691 84.2217 388.849 104.462C379.25 112.006 373.361 110.54 368.372 99.4445C360.839 101.849 356.626 106.007 356.453 114.966C356.148 128.175 354.316 141.386 352.853 154.558C352.549 157.784 351.593 160.915 350.044 163.762C345.321 171.925 340.115 179.804 335.167 187.836C334.078 189.73 332.521 191.313 330.644 192.432C328.767 193.551 326.634 194.168 324.45 194.225C317.934 194.607 311.435 195.287 304.906 195.512C301.431 195.567 299.759 196.751 299.177 200.367C298.264 206.842 296.932 213.252 295.19 219.555C293.685 224.704 294.622 228.033 299.302 230.835C305.954 234.808 307.981 240.569 305.211 248.077C301.415 258.337 297.889 268.701 294.07 279.532L297.74 283.115C302.827 275.886 307.732 269.036 312.696 262.047C315.437 258.147 319.247 255.866 323.916 256.754C335.822 259.052 346.746 255.982 357.579 251.442C366.811 247.527 370.606 249.114 376.095 257.779C377.438 260.272 379.424 262.361 381.847 263.828C388.739 267.076 395.896 269.709 403.071 272.372C403.846 272.616 404.665 272.688 405.47 272.582C406.276 272.476 407.048 272.195 407.733 271.759C410.119 269.331 412.319 266.727 414.315 263.97C409.045 262.807 404.627 261.992 400.306 260.829C394.011 259.136 391.064 254.844 391.774 248.798C391.832 247.382 392.174 245.992 392.78 244.711C393.386 243.43 394.243 242.284 395.301 241.341C396.358 240.398 397.595 239.677 398.937 239.221C400.278 238.765 401.698 238.583 403.111 238.687C409.647 238.51 416.188 238.705 422.702 239.271C428.595 239.904 434.394 241.216 439.986 243.18C447.455 245.85 454.586 249.49 462.544 253.099C462.161 247.596 461.818 242.769 461.545 237.92C460.902 228.199 465.308 223.78 475.092 224.357C481.184 224.771 487.277 225.184 493.708 225.577C489.533 216.936 489.883 212.161 496.767 208.15C503.385 204.28 505.593 198.931 506.671 191.999C507.179 188.635 506.902 186.658 503.711 185.012C500.038 183.047 496.494 180.852 493.099 178.438C490.775 177.109 489.072 174.913 488.364 172.331C487.657 169.748 488.002 166.991 489.324 164.663C491.613 159.717 494.257 154.948 496.613 150.044C497.301 148.634 498.219 146.857 497.952 145.471C496.19 138.146 494.078 130.89 492.015 123.376C488.512 123.86 485.487 124.28 482.464 124.637C475.571 125.517 472.759 123.579 469.422 117.564C464.925 109.409 464.979 102.152 471.691 95.2534C473.035 94.0687 474.014 92.5249 474.511 90.8034C475.008 89.0818 475.003 87.2542 474.497 85.5354C472.047 75.8637 479.186 69.5301 488.735 72.4998C494.338 74.1405 499.967 76.0953 506.822 78.3346L506.785 78.2744ZM421.686 289.669C406.437 284.189 391.978 278.888 377.439 273.862C375.569 273.447 373.615 273.653 371.873 274.448C363.766 277.637 355.896 281.382 347.73 284.339C335.914 288.321 325.652 295.921 318.396 306.061C312.296 314.506 311.019 321.042 314.464 330.891C317.634 339.712 321.614 344.921 331.142 344.706C333.864 344.635 337.049 344.984 339.231 343.757C343.027 341.283 346.632 338.527 350.014 335.512C361.78 326.274 367.653 322.096 377.979 339.947C385.469 352.944 392.777 366.217 405.192 375.612C409.734 379.035 414.104 381.159 419.64 378.526C425.176 375.894 427.117 372.07 426.69 365.106C426.083 354.971 425.359 344.846 424.674 334.718C423.728 319.32 422.637 303.991 421.686 289.669Z" fill="#895B2C" fill-opacity="0.2"/>
<path d="M194.39 251C190.519 244.651 186.503 238.369 182.768 231.937C182.081 230.487 181.011 229.251 179.674 228.364C178.337 227.477 176.783 226.973 175.18 226.904C163.797 225.836 160.026 217.383 166.691 208.242C175.76 195.799 184.957 183.464 194.036 171.036C195.444 168.806 197.518 167.075 199.964 166.087C202.41 165.1 205.104 164.906 207.666 165.533C228.069 169.378 226.115 167.122 232.416 187.139C236.154 199.059 240.363 210.837 243.736 222.835C244.701 226.433 244.478 230.246 243.1 233.707C237.893 245.818 232.082 257.781 226.242 269.597C221.529 279.198 212.196 279.564 206.354 270.556C206.161 270.241 205.968 269.925 205.785 269.624L194.39 251ZM216.084 265.698C222.29 252.689 227.874 241.029 233.378 229.17C233.85 227.461 233.751 225.645 233.094 223.998C229.261 211.888 224.701 200.077 221.641 187.847C219.685 180 215.807 176.957 208.118 176.464C205.034 176.28 203.181 176.626 201.359 179.223C195.964 186.928 190.336 194.487 184.753 202.018C181.481 206.469 178.267 210.947 174.242 216.496C185.206 215.219 189.525 221.626 193.744 228.919C200.726 240.946 208.168 252.713 216.084 265.698Z" fill="#895B2C" fill-opacity="0.2"/>
</svg>
